<?xml version="1.0" encoding="UTF-8" standalone="no"?>
<svg
   xmlns:dc="http://purl.org/dc/elements/1.1/"
   xmlns:cc="http://creativecommons.org/ns#"
   xmlns:rdf="http://www.w3.org/1999/02/22-rdf-syntax-ns#"
   xmlns:svg="http://www.w3.org/2000/svg"
   xmlns="http://www.w3.org/2000/svg"
   xmlns:sodipodi="http://sodipodi.sourceforge.net/DTD/sodipodi-0.dtd"
   xmlns:inkscape="http://www.inkscape.org/namespaces/inkscape"
   version="1.2"
   width="112.88896mm"
   height="109.18646mm"
   viewBox="43526 43531 11288.897 10918.646"
   preserveAspectRatio="xMidYMid"
   xml:space="preserve"
   id="svg5314"
   inkscape:version="0.91 r13725"
   sodipodi:docname="hongKongTimeline-2-zh-cn.svg"
   style="fill-rule:evenodd;stroke-width:28.22200012;stroke-linejoin:round"><metadata
     id="metadata5783"><rdf:RDF><cc:Work
         rdf:about=""><dc:format>image/svg+xml</dc:format><dc:type
           rdf:resource="http://purl.org/dc/dcmitype/StillImage" /><dc:title></dc:title></cc:Work></rdf:RDF></metadata><sodipodi:namedview
     pagecolor="#ffffff"
     bordercolor="#666666"
     borderopacity="1"
     objecttolerance="10"
     gridtolerance="10"
     guidetolerance="10"
     inkscape:pageopacity="0"
     inkscape:pageshadow="2"
     inkscape:window-width="1855"
     inkscape:window-height="1056"
     id="namedview5781"
     showgrid="false"
     fit-margin-top="0"
     fit-margin-left="0"
     fit-margin-right="0"
     fit-margin-bottom="0"
     inkscape:zoom="1.9500919"
     inkscape:cx="200.00011"
     inkscape:cy="193.44058"
     inkscape:window-x="65"
     inkscape:window-y="24"
     inkscape:window-maximized="1"
     inkscape:current-layer="svg5314" /><defs
     class="ClipPathGroup"
     id="defs5316"><clipPath
       id="presentation_clip_path"
       clipPathUnits="userSpaceOnUse"><rect
         x="43526"
         y="43531"
         width="13751"
         height="13300"
         id="rect5319" /></clipPath></defs><defs
     id="defs5321" /><defs
     id="defs5476" /><defs
     class="TextShapeIndex"
     id="defs5501" /><defs
     class="EmbeddedBulletChars"
     id="defs5505" /><defs
     class="TextEmbeddedBitmaps"
     id="defs5534" /><g
     class="SlideGroup"
     id="g5536"
     transform="matrix(0.82095088,0,0,0.82095088,7793.292,7794.1868)"><g
       id="g5538"><g
         id="id1"
         class="Slide"
         clip-path="url(#presentation_clip_path)"><g
           class="Page"
           id="g5541"><g
             class="com.sun.star.drawing.CustomShape"
             id="g5543"><g
               id="id3"><rect
                 class="BoundingBox"
                 x="43610"
                 y="43560"
                 width="2911"
                 height="2131"
                 id="rect5546"
                 style="fill:none;stroke:none" /><path
                 d="m 43965,43561 c -177,0 -354,177 -354,354 l 0,1419 c 0,177 177,355 354,355 l 2199,0 c 177,0 355,-178 355,-355 l 0,-1419 c 0,-177 -178,-354 -355,-354 l -2199,0 z m -354,0 0,0 z m 2908,2128 0,0 z"
                 id="path5548"
                 inkscape:connector-curvature="0"
                 style="fill:#f9d3b3;stroke:none" /><path
                 d="m 43965,43561 c -177,0 -354,177 -354,354 l 0,1419 c 0,177 177,355 354,355 l 2199,0 c 177,0 355,-178 355,-355 l 0,-1419 c 0,-177 -178,-354 -355,-354 l -2199,0 z"
                 id="path5550"
                 inkscape:connector-curvature="0"
                 style="fill:none;stroke:#3465a4" /><path
                 d="m 43611,43561 0,0 z"
                 id="path5552"
                 inkscape:connector-curvature="0"
                 style="fill:none;stroke:#3465a4" /><path
                 d="m 46519,45689 0,0 z"
                 id="path5554"
                 inkscape:connector-curvature="0"
                 style="fill:none;stroke:#3465a4" /><text
                 class="TextShape"
                 id="text5556"><tspan
                   class="TextParagraph"
                   font-size="988px"
                   font-weight="400"
                   id="tspan5558"
                   style="font-weight:400;font-size:988px;font-family:'Liberation Sans', sans-serif"><tspan
                     class="TextPosition"
                     x="43964"
                     y="44967"
                     id="tspan5560"><tspan
                       id="tspan5562"
                       style="fill:#000000;stroke:none">1969</tspan></tspan></tspan></text>
</g></g><g
             class="com.sun.star.drawing.CustomShape"
             id="g5564"><g
               id="id4"><rect
                 class="BoundingBox"
                 x="43567"
                 y="46227"
                 width="2911"
                 height="2130"
                 id="rect5567"
                 style="fill:none;stroke:none" /><path
                 d="m 43922,46228 c -177,0 -354,177 -354,354 l 0,1418 c 0,177 177,355 354,355 l 2199,0 c 177,0 355,-178 355,-355 l 0,-1418 c 0,-177 -178,-354 -355,-354 l -2199,0 z m -354,0 0,0 z m 2908,2127 0,0 z"
                 id="path5569"
                 inkscape:connector-curvature="0"
                 style="fill:#f9d3b3;stroke:none" /><path
                 d="m 43922,46228 c -177,0 -354,177 -354,354 l 0,1418 c 0,177 177,355 354,355 l 2199,0 c 177,0 355,-178 355,-355 l 0,-1418 c 0,-177 -178,-354 -355,-354 l -2199,0 z"
                 id="path5571"
                 inkscape:connector-curvature="0"
                 style="fill:none;stroke:#3465a4" /><path
                 d="m 43568,46228 0,0 z"
                 id="path5573"
                 inkscape:connector-curvature="0"
                 style="fill:none;stroke:#3465a4" /><path
                 d="m 46476,48355 0,0 z"
                 id="path5575"
                 inkscape:connector-curvature="0"
                 style="fill:none;stroke:#3465a4" /><text
                 class="TextShape"
                 id="text5577"><tspan
                   class="TextParagraph"
                   font-size="988px"
                   font-weight="400"
                   id="tspan5579"
                   style="font-weight:400;font-size:988px;font-family:'Liberation Sans', sans-serif"><tspan
                     class="TextPosition"
                     x="43921"
                     y="47634"
                     id="tspan5581"><tspan
                       id="tspan5583"
                       style="fill:#000000;stroke:none">1974</tspan></tspan></tspan></text>
</g></g><g
             class="com.sun.star.drawing.CustomShape"
             id="g5585"><g
               id="id5"><rect
                 class="BoundingBox"
                 x="43567"
                 y="48952"
                 width="2911"
                 height="2130"
                 id="rect5588"
                 style="fill:none;stroke:none" /><path
                 d="m 43922,48953 c -177,0 -354,177 -354,354 l 0,1418 c 0,177 177,355 354,355 l 2199,0 c 177,0 355,-178 355,-355 l 0,-1418 c 0,-177 -178,-354 -355,-354 l -2199,0 z m -354,0 0,0 z m 2908,2127 0,0 z"
                 id="path5590"
                 inkscape:connector-curvature="0"
                 style="fill:#f9d3b3;stroke:none" /><path
                 d="m 43922,48953 c -177,0 -354,177 -354,354 l 0,1418 c 0,177 177,355 354,355 l 2199,0 c 177,0 355,-178 355,-355 l 0,-1418 c 0,-177 -178,-354 -355,-354 l -2199,0 z"
                 id="path5592"
                 inkscape:connector-curvature="0"
                 style="fill:none;stroke:#3465a4" /><path
                 d="m 43568,48953 0,0 z"
                 id="path5594"
                 inkscape:connector-curvature="0"
                 style="fill:none;stroke:#3465a4" /><path
                 d="m 46476,51080 0,0 z"
                 id="path5596"
                 inkscape:connector-curvature="0"
                 style="fill:none;stroke:#3465a4" /><text
                 class="TextShape"
                 id="text5598"><tspan
                   class="TextParagraph"
                   font-size="988px"
                   font-weight="400"
                   id="tspan5600"
                   style="font-weight:400;font-size:988px;font-family:'Liberation Sans', sans-serif"><tspan
                     class="TextPosition"
                     x="43921"
                     y="50359"
                     id="tspan5602"><tspan
                       id="tspan5604"
                       style="fill:#000000;stroke:none">1988</tspan></tspan></tspan></text>
</g></g><g
             class="com.sun.star.drawing.CustomShape"
             id="g5606"><g
               id="id6"><rect
                 class="BoundingBox"
                 x="43567"
                 y="51825"
                 width="2911"
                 height="2129"
                 id="rect5609"
                 style="fill:none;stroke:none" /><path
                 d="m 43922,51826 c -177,0 -354,177 -354,354 l 0,1417 c 0,177 177,355 354,355 l 2199,0 c 177,0 355,-178 355,-355 l 0,-1417 c 0,-177 -178,-354 -355,-354 l -2199,0 z m -354,0 0,0 z m 2908,2126 0,0 z"
                 id="path5611"
                 inkscape:connector-curvature="0"
                 style="fill:#f9d3b3;stroke:none" /><path
                 d="m 43922,51826 c -177,0 -354,177 -354,354 l 0,1417 c 0,177 177,355 354,355 l 2199,0 c 177,0 355,-178 355,-355 l 0,-1417 c 0,-177 -178,-354 -355,-354 l -2199,0 z"
                 id="path5613"
                 inkscape:connector-curvature="0"
                 style="fill:none;stroke:#3465a4" /><path
                 d="m 43568,51826 0,0 z"
                 id="path5615"
                 inkscape:connector-curvature="0"
                 style="fill:none;stroke:#3465a4" /><path
                 d="m 46476,53952 0,0 z"
                 id="path5617"
                 inkscape:connector-curvature="0"
                 style="fill:none;stroke:#3465a4" /><text
                 class="TextShape"
                 id="text5619"><tspan
                   class="TextParagraph"
                   font-size="988px"
                   font-weight="400"
                   id="tspan5621"
                   style="font-weight:400;font-size:988px;font-family:'Liberation Sans', sans-serif"><tspan
                     class="TextPosition"
                     x="43921"
                     y="53231"
                     id="tspan5623"><tspan
                       id="tspan5625"
                       style="fill:#000000;stroke:none">1990</tspan></tspan></tspan></text>
</g></g><g
             class="com.sun.star.drawing.CustomShape"
             id="g5627"><g
               id="id7"><rect
                 class="BoundingBox"
                 x="43525"
                 y="54702"
                 width="2911"
                 height="2130"
                 id="rect5630"
                 style="fill:none;stroke:none" /><path
                 d="m 43880,54703 c -177,0 -354,177 -354,354 l 0,1418 c 0,177 177,355 354,355 l 2199,0 c 177,0 355,-178 355,-355 l 0,-1418 c 0,-177 -178,-354 -355,-354 l -2199,0 z m -354,0 0,0 z m 2908,2127 0,0 z"
                 id="path5632"
                 inkscape:connector-curvature="0"
                 style="fill:#f9d3b3;stroke:none" /><path
                 d="m 43880,54703 c -177,0 -354,177 -354,354 l 0,1418 c 0,177 177,355 354,355 l 2199,0 c 177,0 355,-178 355,-355 l 0,-1418 c 0,-177 -178,-354 -355,-354 l -2199,0 z"
                 id="path5634"
                 inkscape:connector-curvature="0"
                 style="fill:none;stroke:#3465a4" /><path
                 d="m 43526,54703 0,0 z"
                 id="path5636"
                 inkscape:connector-curvature="0"
                 style="fill:none;stroke:#3465a4" /><path
                 d="m 46434,56830 0,0 z"
                 id="path5638"
                 inkscape:connector-curvature="0"
                 style="fill:none;stroke:#3465a4" /><text
                 class="TextShape"
                 id="text5640"><tspan
                   class="TextParagraph"
                   font-size="988px"
                   font-weight="400"
                   id="tspan5642"
                   style="font-weight:400;font-size:988px;font-family:'Liberation Sans', sans-serif"><tspan
                     class="TextPosition"
                     x="43879"
                     y="56109"
                     id="tspan5644"><tspan
                       id="tspan5646"
                       style="fill:#000000;stroke:none">2015</tspan></tspan></tspan></text>
</g></g><g
             class="com.sun.star.drawing.CustomShape"
             id="g5648"><g
               id="id8"><rect
                 class="BoundingBox"
                 x="47358"
                 y="43530"
                 width="9920"
                 height="2161"
                 id="rect5651"
                 style="fill:none;stroke:none" /><path
                 d="m 48222,43531 c -432,0 -863,431 -863,863 l 0,431 c 0,432 431,864 863,864 l 8190,0 c 431,0 863,-432 863,-864 l 0,-431 c 0,-432 -432,-863 -863,-863 l -8190,0 z m -863,0 0,0 z m 9917,2158 0,0 z"
                 id="path5653"
                 inkscape:connector-curvature="0"
                 style="fill:#d1d6e8;stroke:none" /><path
                 d="m 48222,43531 c -432,0 -863,431 -863,863 l 0,431 c 0,432 431,864 863,864 l 8190,0 c 431,0 863,-432 863,-864 l 0,-431 c 0,-432 -432,-863 -863,-863 l -8190,0 z"
                 id="path5655"
                 inkscape:connector-curvature="0"
                 style="fill:none;stroke:#3465a4" /><path
                 d="m 47359,43531 0,0 z"
                 id="path5657"
                 inkscape:connector-curvature="0"
                 style="fill:none;stroke:#3465a4" /><path
                 d="m 57276,45689 0,0 z"
                 id="path5659"
                 inkscape:connector-curvature="0"
                 style="fill:none;stroke:#3465a4" /><text
                 class="TextShape"
                 id="text5661"><tspan
                   class="TextParagraph"
                   font-size="494px"
                   font-weight="400"
                   id="tspan5663"
                   style="font-weight:400;font-size:494px;font-family:FreeSans, sans-serif"><tspan
                     class="TextPosition"
                     x="48107"
                     y="44242"
                     id="tspan5665"><tspan
                       id="tspan5667"
                       style="fill:#000000;stroke:none">「香港巴哈伊总会」在《公司条例》下</tspan></tspan><tspan
                     class="TextPosition"
                     x="48355"
                     y="44784"
                     id="tspan5669"><tspan
                       id="tspan5671"
                       style="fill:#000000;stroke:none">成立，并获得法定认可的慈善机构地</tspan></tspan><tspan
                     class="TextPosition"
                     x="51822"
                     y="45326"
                     id="tspan5673"><tspan
                       id="tspan5675"
                       style="fill:#000000;stroke:none">位。</tspan></tspan></tspan></text>
</g></g><g
             class="com.sun.star.drawing.CustomShape"
             id="g5677"><g
               id="id9"><rect
                 class="BoundingBox"
                 x="47358"
                 y="46227"
                 width="9920"
                 height="2160"
                 id="rect5680"
                 style="fill:none;stroke:none" /><path
                 d="m 48222,46228 c -432,0 -863,431 -863,863 l 0,430 c 0,432 431,864 863,864 l 8190,0 c 431,0 863,-432 863,-864 l 0,-430 c 0,-432 -432,-863 -863,-863 l -8190,0 z m -863,0 0,0 z m 9917,2157 0,0 z"
                 id="path5682"
                 inkscape:connector-curvature="0"
                 style="fill:#d1d6e8;stroke:none" /><path
                 d="m 48222,46228 c -432,0 -863,431 -863,863 l 0,430 c 0,432 431,864 863,864 l 8190,0 c 431,0 863,-432 863,-864 l 0,-430 c 0,-432 -432,-863 -863,-863 l -8190,0 z"
                 id="path5684"
                 inkscape:connector-curvature="0"
                 style="fill:none;stroke:#3465a4" /><path
                 d="m 47359,46228 0,0 z"
                 id="path5686"
                 inkscape:connector-curvature="0"
                 style="fill:none;stroke:#3465a4" /><path
                 d="m 57276,48385 0,0 z"
                 id="path5688"
                 inkscape:connector-curvature="0"
                 style="fill:none;stroke:#3465a4" /><text
                 class="TextShape"
                 id="text5690"><tspan
                   class="TextParagraph"
                   font-size="494px"
                   font-weight="400"
                   id="tspan5692"
                   style="font-weight:400;font-size:494px;font-family:FreeSans, sans-serif"><tspan
                     class="TextPosition"
                     x="48355"
                     y="47209"
                     id="tspan5694"><tspan
                       id="tspan5696"
                       style="fill:#000000;stroke:none">首屈「香港巴哈伊国家总会」正式选</tspan></tspan><tspan
                     class="TextPosition"
                     x="51822"
                     y="47751"
                     id="tspan5698"><tspan
                       id="tspan5700"
                       style="fill:#000000;stroke:none">出。</tspan></tspan></tspan></text>
</g></g><g
             class="com.sun.star.drawing.CustomShape"
             id="g5702"><g
               id="id10"><rect
                 class="BoundingBox"
                 x="47358"
                 y="48920"
                 width="9920"
                 height="2161"
                 id="rect5705"
                 style="fill:none;stroke:none" /><path
                 d="m 48222,48921 c -432,0 -863,431 -863,863 l 0,431 c 0,432 431,864 863,864 l 8190,0 c 431,0 863,-432 863,-864 l 0,-431 c 0,-432 -432,-863 -863,-863 l -8190,0 z m -863,0 0,0 z m 9917,2158 0,0 z"
                 id="path5707"
                 inkscape:connector-curvature="0"
                 style="fill:#d1d6e8;stroke:none" /><path
                 d="m 48222,48921 c -432,0 -863,431 -863,863 l 0,431 c 0,432 431,864 863,864 l 8190,0 c 431,0 863,-432 863,-864 l 0,-431 c 0,-432 -432,-863 -863,-863 l -8190,0 z"
                 id="path5709"
                 inkscape:connector-curvature="0"
                 style="fill:none;stroke:#3465a4" /><path
                 d="m 47359,48921 0,0 z"
                 id="path5711"
                 inkscape:connector-curvature="0"
                 style="fill:none;stroke:#3465a4" /><path
                 d="m 57276,51079 0,0 z"
                 id="path5713"
                 inkscape:connector-curvature="0"
                 style="fill:none;stroke:#3465a4" /><text
                 class="TextShape"
                 id="text5715"><tspan
                   class="TextParagraph"
                   font-size="494px"
                   font-weight="400"
                   id="tspan5717"
                   style="font-weight:400;font-size:494px;font-family:FreeSans, sans-serif"><tspan
                     class="TextPosition"
                     x="48107"
                     y="49903"
                     id="tspan5719"><tspan
                       id="tspan5721"
                       style="fill:#000000;stroke:none">「香港巴哈伊总会」根据《香港巴哈伊</tspan></tspan><tspan
                     class="TextPosition"
                     x="49841"
                     y="50445"
                     id="tspan5723"><tspan
                       id="tspan5725"
                       style="fill:#000000;stroke:none">总会法团条例》成立。</tspan></tspan></tspan></text>
</g></g><g
             class="com.sun.star.drawing.CustomShape"
             id="g5727"><g
               id="id11"><rect
                 class="BoundingBox"
                 x="47358"
                 y="51797"
                 width="9920"
                 height="2158"
                 id="rect5730"
                 style="fill:none;stroke:none" /><path
                 d="m 48221,51798 c -431,0 -862,431 -862,862 l 0,430 c 0,431 431,863 862,863 l 8192,0 c 431,0 863,-432 863,-863 l 0,-430 c 0,-431 -432,-862 -863,-862 l -8192,0 z m -862,0 0,0 z m 9917,2155 0,0 z"
                 id="path5732"
                 inkscape:connector-curvature="0"
                 style="fill:#d1d6e8;stroke:none" /><path
                 d="m 48221,51798 c -431,0 -862,431 -862,862 l 0,430 c 0,431 431,863 862,863 l 8192,0 c 431,0 863,-432 863,-863 l 0,-430 c 0,-431 -432,-862 -863,-862 l -8192,0 z"
                 id="path5734"
                 inkscape:connector-curvature="0"
                 style="fill:none;stroke:#3465a4" /><path
                 d="m 47359,51798 0,0 z"
                 id="path5736"
                 inkscape:connector-curvature="0"
                 style="fill:none;stroke:#3465a4" /><path
                 d="m 57276,53953 0,0 z"
                 id="path5738"
                 inkscape:connector-curvature="0"
                 style="fill:none;stroke:#3465a4" /><text
                 class="TextShape"
                 id="text5740"><tspan
                   class="TextParagraph"
                   font-size="494px"
                   font-weight="400"
                   id="tspan5742"
                   style="font-weight:400;font-size:494px;font-family:FreeSans, sans-serif"><tspan
                     class="TextPosition"
                     x="48107"
                     y="52778"
                     id="tspan5744"><tspan
                       id="tspan5746"
                       style="fill:#000000;stroke:none">位于铜锣湾的巴哈伊礼堂获得法定认可</tspan></tspan><tspan
                     class="TextPosition"
                     x="49593"
                     y="53320"
                     id="tspan5748"><tspan
                       id="tspan5750"
                       style="fill:#000000;stroke:none">之公众礼拜场所的地位。</tspan></tspan></tspan></text>
</g></g><g
             class="com.sun.star.drawing.CustomShape"
             id="g5752"><g
               id="id12"><rect
                 class="BoundingBox"
                 x="47305"
                 y="54672"
                 width="9919"
                 height="2160"
                 id="rect5755"
                 style="fill:none;stroke:none" /><path
                 d="m 48169,54673 c -432,0 -863,431 -863,863 l 0,430 c 0,432 431,864 863,864 l 8189,0 c 432,0 864,-432 864,-864 l 0,-430 c 0,-432 -432,-863 -864,-863 l -8189,0 z m -863,0 0,0 z m 9916,2157 0,0 z"
                 id="path5757"
                 inkscape:connector-curvature="0"
                 style="fill:#d1d6e8;stroke:none" /><path
                 d="m 48169,54673 c -432,0 -863,431 -863,863 l 0,430 c 0,432 431,864 863,864 l 8189,0 c 432,0 864,-432 864,-864 l 0,-430 c 0,-432 -432,-863 -864,-863 l -8189,0 z"
                 id="path5759"
                 inkscape:connector-curvature="0"
                 style="fill:none;stroke:#3465a4" /><path
                 d="m 47306,54673 0,0 z"
                 id="path5761"
                 inkscape:connector-curvature="0"
                 style="fill:none;stroke:#3465a4" /><path
                 d="m 57222,56830 0,0 z"
                 id="path5763"
                 inkscape:connector-curvature="0"
                 style="fill:none;stroke:#3465a4" /><text
                 class="TextShape"
                 id="text5765"><tspan
                   class="TextParagraph"
                   font-size="494px"
                   font-weight="400"
                   id="tspan5767"
                   style="font-weight:400;font-size:494px;font-family:FreeSans, sans-serif"><tspan
                     class="TextPosition"
                     x="48054"
                     y="55383"
                     id="tspan5769"><tspan
                       id="tspan5771"
                       style="fill:#000000;stroke:none">购入一幅位于粉岭的灵曦堂象征土地，</tspan></tspan><tspan
                     class="TextPosition"
                     x="48301"
                     y="55925"
                     id="tspan5773"><tspan
                       id="tspan5775"
                       style="fill:#000000;stroke:none">取代之前位于南丫岛的灵曦堂象征土</tspan></tspan><tspan
                     class="TextPosition"
                     x="51768"
                     y="56467"
                     id="tspan5777"><tspan
                       id="tspan5779"
                       style="fill:#000000;stroke:none">地。</tspan></tspan></tspan></text>
</g></g></g></g></g></g></svg>