<?xml version="1.0" encoding="UTF-8" standalone="no"?>
<svg
   xmlns:dc="http://purl.org/dc/elements/1.1/"
   xmlns:cc="http://creativecommons.org/ns#"
   xmlns:rdf="http://www.w3.org/1999/02/22-rdf-syntax-ns#"
   xmlns:svg="http://www.w3.org/2000/svg"
   xmlns="http://www.w3.org/2000/svg"
   xmlns:sodipodi="http://sodipodi.sourceforge.net/DTD/sodipodi-0.dtd"
   xmlns:inkscape="http://www.inkscape.org/namespaces/inkscape"
   version="1.2"
   width="112.88898mm"
   height="109.1862mm"
   viewBox="43651 4086 11288.898 10918.619"
   preserveAspectRatio="xMidYMid"
   xml:space="preserve"
   id="svg2"
   inkscape:version="0.91 r13725"
   sodipodi:docname="hongKongTimeline-2-en-gb.svg"
   style="fill-rule:evenodd;stroke-width:28.22200012;stroke-linejoin:round"><metadata
     id="metadata414"><rdf:RDF><cc:Work
         rdf:about=""><dc:format>image/svg+xml</dc:format><dc:type
           rdf:resource="http://purl.org/dc/dcmitype/StillImage" /><dc:title></dc:title></cc:Work></rdf:RDF></metadata><sodipodi:namedview
     pagecolor="#ffffff"
     bordercolor="#666666"
     borderopacity="1"
     objecttolerance="10"
     gridtolerance="10"
     guidetolerance="10"
     inkscape:pageopacity="0"
     inkscape:pageshadow="2"
     inkscape:window-width="1855"
     inkscape:window-height="1056"
     id="namedview412"
     showgrid="false"
     fit-margin-top="0"
     fit-margin-left="0"
     fit-margin-right="0"
     fit-margin-bottom="0"
     inkscape:zoom="1.4046518"
     inkscape:cx="200.00013"
     inkscape:cy="193.44011"
     inkscape:window-x="65"
     inkscape:window-y="24"
     inkscape:window-maximized="1"
     inkscape:current-layer="svg2" /><defs
     class="ClipPathGroup"
     id="defs4"><clipPath
       id="presentation_clip_path"
       clipPathUnits="userSpaceOnUse"><rect
         x="43651"
         y="4086"
         width="13750"
         height="13299"
         id="rect7" /></clipPath></defs><defs
     id="defs9" /><defs
     class="TextShapeIndex"
     id="defs120" /><defs
     class="EmbeddedBulletChars"
     id="defs124" /><defs
     class="TextEmbeddedBitmaps"
     id="defs153" /><g
     class="SlideGroup"
     id="g155"
     transform="matrix(0.82101059,0,0,0.82101059,7813.0672,731.3503)"><g
       id="g157"><g
         id="id1"
         class="Slide"
         clip-path="url(#presentation_clip_path)"><g
           class="Page"
           id="g160"><g
             class="com.sun.star.drawing.CustomShape"
             id="g162"><g
               id="id3"><rect
                 class="BoundingBox"
                 x="43735"
                 y="4115"
                 width="2911"
                 height="2131"
                 id="rect165"
                 style="fill:none;stroke:none" /><path
                 d="m 44090,4116 c -177,0 -354,177 -354,354 l 0,1419 c 0,177 177,355 354,355 l 2199,0 c 177,0 355,-178 355,-355 l 0,-1419 c 0,-177 -178,-354 -355,-354 l -2199,0 z m -354,0 0,0 z m 2908,2128 0,0 z"
                 id="path167"
                 inkscape:connector-curvature="0"
                 style="fill:#f9d3b3;stroke:none" /><path
                 d="m 44090,4116 c -177,0 -354,177 -354,354 l 0,1419 c 0,177 177,355 354,355 l 2199,0 c 177,0 355,-178 355,-355 l 0,-1419 c 0,-177 -178,-354 -355,-354 l -2199,0 z"
                 id="path169"
                 inkscape:connector-curvature="0"
                 style="fill:none;stroke:#3465a4" /><path
                 d="m 43736,4116 0,0 z"
                 id="path171"
                 inkscape:connector-curvature="0"
                 style="fill:none;stroke:#3465a4" /><path
                 d="m 46644,6244 0,0 z"
                 id="path173"
                 inkscape:connector-curvature="0"
                 style="fill:none;stroke:#3465a4" /><text
                 class="TextShape"
                 id="text175"><tspan
                   class="TextParagraph"
                   font-size="988px"
                   font-weight="400"
                   id="tspan177"
                   style="font-weight:400;font-size:988px;font-family:'Liberation Sans', sans-serif"><tspan
                     class="TextPosition"
                     x="44089"
                     y="5522"
                     id="tspan179"><tspan
                       id="tspan181"
                       style="fill:#000000;stroke:none">1969</tspan></tspan></tspan></text>
</g></g><g
             class="com.sun.star.drawing.CustomShape"
             id="g183"><g
               id="id4"><rect
                 class="BoundingBox"
                 x="43693"
                 y="6781"
                 width="2911"
                 height="2130"
                 id="rect186"
                 style="fill:none;stroke:none" /><path
                 d="m 44048,6782 c -177,0 -354,177 -354,354 l 0,1418 c 0,177 177,355 354,355 l 2199,0 c 177,0 355,-178 355,-355 l 0,-1418 c 0,-177 -178,-354 -355,-354 l -2199,0 z m -354,0 0,0 z m 2908,2127 0,0 z"
                 id="path188"
                 inkscape:connector-curvature="0"
                 style="fill:#f9d3b3;stroke:none" /><path
                 d="m 44048,6782 c -177,0 -354,177 -354,354 l 0,1418 c 0,177 177,355 354,355 l 2199,0 c 177,0 355,-178 355,-355 l 0,-1418 c 0,-177 -178,-354 -355,-354 l -2199,0 z"
                 id="path190"
                 inkscape:connector-curvature="0"
                 style="fill:none;stroke:#3465a4" /><path
                 d="m 43694,6782 0,0 z"
                 id="path192"
                 inkscape:connector-curvature="0"
                 style="fill:none;stroke:#3465a4" /><path
                 d="m 46602,8909 0,0 z"
                 id="path194"
                 inkscape:connector-curvature="0"
                 style="fill:none;stroke:#3465a4" /><text
                 class="TextShape"
                 id="text196"><tspan
                   class="TextParagraph"
                   font-size="988px"
                   font-weight="400"
                   id="tspan198"
                   style="font-weight:400;font-size:988px;font-family:'Liberation Sans', sans-serif"><tspan
                     class="TextPosition"
                     x="44047"
                     y="8188"
                     id="tspan200"><tspan
                       id="tspan202"
                       style="fill:#000000;stroke:none">1974</tspan></tspan></tspan></text>
</g></g><g
             class="com.sun.star.drawing.CustomShape"
             id="g204"><g
               id="id5"><rect
                 class="BoundingBox"
                 x="43693"
                 y="9506"
                 width="2911"
                 height="2130"
                 id="rect207"
                 style="fill:none;stroke:none" /><path
                 d="m 44048,9507 c -177,0 -354,177 -354,354 l 0,1418 c 0,177 177,355 354,355 l 2199,0 c 177,0 355,-178 355,-355 l 0,-1418 c 0,-177 -178,-354 -355,-354 l -2199,0 z m -354,0 0,0 z m 2908,2127 0,0 z"
                 id="path209"
                 inkscape:connector-curvature="0"
                 style="fill:#f9d3b3;stroke:none" /><path
                 d="m 44048,9507 c -177,0 -354,177 -354,354 l 0,1418 c 0,177 177,355 354,355 l 2199,0 c 177,0 355,-178 355,-355 l 0,-1418 c 0,-177 -178,-354 -355,-354 l -2199,0 z"
                 id="path211"
                 inkscape:connector-curvature="0"
                 style="fill:none;stroke:#3465a4" /><path
                 d="m 43694,9507 0,0 z"
                 id="path213"
                 inkscape:connector-curvature="0"
                 style="fill:none;stroke:#3465a4" /><path
                 d="m 46602,11634 0,0 z"
                 id="path215"
                 inkscape:connector-curvature="0"
                 style="fill:none;stroke:#3465a4" /><text
                 class="TextShape"
                 id="text217"><tspan
                   class="TextParagraph"
                   font-size="988px"
                   font-weight="400"
                   id="tspan219"
                   style="font-weight:400;font-size:988px;font-family:'Liberation Sans', sans-serif"><tspan
                     class="TextPosition"
                     x="44047"
                     y="10913"
                     id="tspan221"><tspan
                       id="tspan223"
                       style="fill:#000000;stroke:none">1988</tspan></tspan></tspan></text>
</g></g><g
             class="com.sun.star.drawing.CustomShape"
             id="g225"><g
               id="id6"><rect
                 class="BoundingBox"
                 x="43693"
                 y="12380"
                 width="2911"
                 height="2129"
                 id="rect228"
                 style="fill:none;stroke:none" /><path
                 d="m 44048,12381 c -177,0 -354,177 -354,354 l 0,1417 c 0,177 177,355 354,355 l 2199,0 c 177,0 355,-178 355,-355 l 0,-1417 c 0,-177 -178,-354 -355,-354 l -2199,0 z m -354,0 0,0 z m 2908,2126 0,0 z"
                 id="path230"
                 inkscape:connector-curvature="0"
                 style="fill:#f9d3b3;stroke:none" /><path
                 d="m 44048,12381 c -177,0 -354,177 -354,354 l 0,1417 c 0,177 177,355 354,355 l 2199,0 c 177,0 355,-178 355,-355 l 0,-1417 c 0,-177 -178,-354 -355,-354 l -2199,0 z"
                 id="path232"
                 inkscape:connector-curvature="0"
                 style="fill:none;stroke:#3465a4" /><path
                 d="m 43694,12381 0,0 z"
                 id="path234"
                 inkscape:connector-curvature="0"
                 style="fill:none;stroke:#3465a4" /><path
                 d="m 46602,14507 0,0 z"
                 id="path236"
                 inkscape:connector-curvature="0"
                 style="fill:none;stroke:#3465a4" /><text
                 class="TextShape"
                 id="text238"><tspan
                   class="TextParagraph"
                   font-size="988px"
                   font-weight="400"
                   id="tspan240"
                   style="font-weight:400;font-size:988px;font-family:'Liberation Sans', sans-serif"><tspan
                     class="TextPosition"
                     x="44047"
                     y="13786"
                     id="tspan242"><tspan
                       id="tspan244"
                       style="fill:#000000;stroke:none">1990</tspan></tspan></tspan></text>
</g></g><g
             class="com.sun.star.drawing.CustomShape"
             id="g246"><g
               id="id7"><rect
                 class="BoundingBox"
                 x="43650"
                 y="15256"
                 width="2911"
                 height="2130"
                 id="rect249"
                 style="fill:none;stroke:none" /><path
                 d="m 44005,15257 c -177,0 -354,177 -354,354 l 0,1418 c 0,177 177,355 354,355 l 2199,0 c 177,0 355,-178 355,-355 l 0,-1418 c 0,-177 -178,-354 -355,-354 l -2199,0 z m -354,0 0,0 z m 2908,2127 0,0 z"
                 id="path251"
                 inkscape:connector-curvature="0"
                 style="fill:#f9d3b3;stroke:none" /><path
                 d="m 44005,15257 c -177,0 -354,177 -354,354 l 0,1418 c 0,177 177,355 354,355 l 2199,0 c 177,0 355,-178 355,-355 l 0,-1418 c 0,-177 -178,-354 -355,-354 l -2199,0 z"
                 id="path253"
                 inkscape:connector-curvature="0"
                 style="fill:none;stroke:#3465a4" /><path
                 d="m 43651,15257 0,0 z"
                 id="path255"
                 inkscape:connector-curvature="0"
                 style="fill:none;stroke:#3465a4" /><path
                 d="m 46559,17384 0,0 z"
                 id="path257"
                 inkscape:connector-curvature="0"
                 style="fill:none;stroke:#3465a4" /><text
                 class="TextShape"
                 id="text259"><tspan
                   class="TextParagraph"
                   font-size="988px"
                   font-weight="400"
                   id="tspan261"
                   style="font-weight:400;font-size:988px;font-family:'Liberation Sans', sans-serif"><tspan
                     class="TextPosition"
                     x="44004"
                     y="16663"
                     id="tspan263"><tspan
                       id="tspan265"
                       style="fill:#000000;stroke:none">2015</tspan></tspan></tspan></text>
</g></g><g
             class="com.sun.star.drawing.CustomShape"
             id="g267"><g
               id="id8"><rect
                 class="BoundingBox"
                 x="47483"
                 y="4085"
                 width="9919"
                 height="2161"
                 id="rect270"
                 style="fill:none;stroke:none" /><path
                 d="m 48347,4086 c -432,0 -863,431 -863,863 l 0,431 c 0,432 431,864 863,864 l 8189,0 c 432,0 864,-432 864,-864 l 0,-431 c 0,-432 -432,-863 -864,-863 l -8189,0 z m -863,0 0,0 z m 9916,2158 0,0 z"
                 id="path272"
                 inkscape:connector-curvature="0"
                 style="fill:#d1d6e8;stroke:none" /><path
                 d="m 48347,4086 c -432,0 -863,431 -863,863 l 0,431 c 0,432 431,864 863,864 l 8189,0 c 432,0 864,-432 864,-864 l 0,-431 c 0,-432 -432,-863 -864,-863 l -8189,0 z"
                 id="path274"
                 inkscape:connector-curvature="0"
                 style="fill:none;stroke:#3465a4" /><path
                 d="m 47484,4086 0,0 z"
                 id="path276"
                 inkscape:connector-curvature="0"
                 style="fill:none;stroke:#3465a4" /><path
                 d="m 57400,6244 0,0 z"
                 id="path278"
                 inkscape:connector-curvature="0"
                 style="fill:none;stroke:#3465a4" /><text
                 class="TextShape"
                 id="text280"><tspan
                   class="TextParagraph"
                   font-size="494px"
                   font-weight="400"
                   id="tspan282"
                   style="font-weight:400;font-size:494px;font-family:'Liberation Sans', sans-serif"><tspan
                     class="TextPosition"
                     x="48054"
                     y="4504"
                     id="tspan284"><tspan
                       id="tspan286"
                       style="fill:#000000;stroke:none">The Spiritual Assembly of the Bahá’ís of </tspan></tspan><tspan
                     class="TextPosition"
                     x="48539"
                     y="5059"
                     id="tspan288"><tspan
                       id="tspan290"
                       style="fill:#000000;stroke:none">Hong Kong was incorporated under </tspan></tspan><tspan
                     class="TextPosition"
                     x="48416"
                     y="5614"
                     id="tspan292"><tspan
                       id="tspan294"
                       style="fill:#000000;stroke:none">Companies Ordinance &amp; granted the </tspan></tspan><tspan
                     class="TextPosition"
                     x="48903"
                     y="6169"
                     id="tspan296"><tspan
                       id="tspan298"
                       style="fill:#000000;stroke:none">status as a charitable institution.</tspan></tspan></tspan></text>
</g></g><g
             class="com.sun.star.drawing.CustomShape"
             id="g300"><g
               id="id9"><rect
                 class="BoundingBox"
                 x="47483"
                 y="6781"
                 width="9919"
                 height="2160"
                 id="rect303"
                 style="fill:none;stroke:none" /><path
                 d="m 48347,6782 c -432,0 -863,431 -863,863 l 0,430 c 0,432 431,864 863,864 l 8189,0 c 432,0 864,-432 864,-864 l 0,-430 c 0,-432 -432,-863 -864,-863 l -8189,0 z m -863,0 0,0 z m 9916,2157 0,0 z"
                 id="path305"
                 inkscape:connector-curvature="0"
                 style="fill:#d1d6e8;stroke:none" /><path
                 d="m 48347,6782 c -432,0 -863,431 -863,863 l 0,430 c 0,432 431,864 863,864 l 8189,0 c 432,0 864,-432 864,-864 l 0,-430 c 0,-432 -432,-863 -864,-863 l -8189,0 z"
                 id="path307"
                 inkscape:connector-curvature="0"
                 style="fill:none;stroke:#3465a4" /><path
                 d="m 47484,6782 0,0 z"
                 id="path309"
                 inkscape:connector-curvature="0"
                 style="fill:none;stroke:#3465a4" /><path
                 d="m 57400,8939 0,0 z"
                 id="path311"
                 inkscape:connector-curvature="0"
                 style="fill:none;stroke:#3465a4" /><text
                 class="TextShape"
                 id="text313"><tspan
                   class="TextParagraph"
                   font-size="494px"
                   font-weight="400"
                   id="tspan315"
                   style="font-weight:400;font-size:494px;font-family:'Liberation Sans', sans-serif"><tspan
                     class="TextPosition"
                     x="48191"
                     y="7754"
                     id="tspan317"><tspan
                       id="tspan319"
                       style="fill:#000000;stroke:none">The first National Spiritual Assembly of </tspan></tspan><tspan
                     class="TextPosition"
                     x="48160"
                     y="8309"
                     id="tspan321"><tspan
                       id="tspan323"
                       style="fill:#000000;stroke:none">the Bahá’ís of Hong Kong was elected.</tspan></tspan></tspan></text>
</g></g><g
             class="com.sun.star.drawing.CustomShape"
             id="g325"><g
               id="id10"><rect
                 class="BoundingBox"
                 x="47483"
                 y="9476"
                 width="9919"
                 height="2160"
                 id="rect328"
                 style="fill:none;stroke:none" /><path
                 d="m 48347,9477 c -432,0 -863,431 -863,863 l 0,430 c 0,432 431,864 863,864 l 8189,0 c 432,0 864,-432 864,-864 l 0,-430 c 0,-432 -432,-863 -864,-863 l -8189,0 z m -863,0 0,0 z m 9916,2157 0,0 z"
                 id="path330"
                 inkscape:connector-curvature="0"
                 style="fill:#d1d6e8;stroke:none" /><path
                 d="m 48347,9477 c -432,0 -863,431 -863,863 l 0,430 c 0,432 431,864 863,864 l 8189,0 c 432,0 864,-432 864,-864 l 0,-430 c 0,-432 -432,-863 -864,-863 l -8189,0 z"
                 id="path332"
                 inkscape:connector-curvature="0"
                 style="fill:none;stroke:#3465a4" /><path
                 d="m 47484,9477 0,0 z"
                 id="path334"
                 inkscape:connector-curvature="0"
                 style="fill:none;stroke:#3465a4" /><path
                 d="m 57400,11634 0,0 z"
                 id="path336"
                 inkscape:connector-curvature="0"
                 style="fill:none;stroke:#3465a4" /><text
                 class="TextShape"
                 id="text338"><tspan
                   class="TextParagraph"
                   font-size="494px"
                   font-weight="400"
                   id="tspan340"
                   style="font-weight:400;font-size:494px;font-family:'Liberation Sans', sans-serif"><tspan
                     class="TextPosition"
                     x="48054"
                     y="10172"
                     id="tspan342"><tspan
                       id="tspan344"
                       style="fill:#000000;stroke:none">The Spiritual Assembly of the Bahá’ís of </tspan></tspan><tspan
                     class="TextPosition"
                     x="48909"
                     y="10727"
                     id="tspan346"><tspan
                       id="tspan348"
                       style="fill:#000000;stroke:none">Hong Kong was incorporated by </tspan></tspan><tspan
                     class="TextPosition"
                     x="49656"
                     y="11282"
                     id="tspan350"><tspan
                       id="tspan352"
                       style="fill:#000000;stroke:none">Ordinance Chapter 1143.</tspan></tspan></tspan></text>
</g></g><g
             class="com.sun.star.drawing.CustomShape"
             id="g354"><g
               id="id11"><rect
                 class="BoundingBox"
                 x="47483"
                 y="12352"
                 width="9919"
                 height="2158"
                 id="rect357"
                 style="fill:none;stroke:none" /><path
                 d="m 48346,12353 c -431,0 -862,431 -862,862 l 0,430 c 0,431 431,863 862,863 l 8191,0 c 431,0 863,-432 863,-863 l 0,-430 c 0,-431 -432,-862 -863,-862 l -8191,0 z m -862,0 0,0 z m 9916,2155 0,0 z"
                 id="path359"
                 inkscape:connector-curvature="0"
                 style="fill:#d1d6e8;stroke:none" /><path
                 d="m 48346,12353 c -431,0 -862,431 -862,862 l 0,430 c 0,431 431,863 862,863 l 8191,0 c 431,0 863,-432 863,-863 l 0,-430 c 0,-431 -432,-862 -863,-862 l -8191,0 z"
                 id="path361"
                 inkscape:connector-curvature="0"
                 style="fill:none;stroke:#3465a4" /><path
                 d="m 47484,12353 0,0 z"
                 id="path363"
                 inkscape:connector-curvature="0"
                 style="fill:none;stroke:#3465a4" /><path
                 d="m 57400,14508 0,0 z"
                 id="path365"
                 inkscape:connector-curvature="0"
                 style="fill:none;stroke:#3465a4" /><text
                 class="TextShape"
                 id="text367"><tspan
                   class="TextParagraph"
                   font-size="494px"
                   font-weight="400"
                   id="tspan369"
                   style="font-weight:400;font-size:494px;font-family:'Liberation Sans', sans-serif"><tspan
                     class="TextPosition"
                     x="48299"
                     y="13047"
                     id="tspan371"><tspan
                       id="tspan373"
                       style="fill:#000000;stroke:none">The Bahá’í Hall, located at Causeway </tspan></tspan><tspan
                     class="TextPosition"
                     x="48274"
                     y="13602"
                     id="tspan375"><tspan
                       id="tspan377"
                       style="fill:#000000;stroke:none">Bay, was licenced as a place of public </tspan></tspan><tspan
                     class="TextPosition"
                     x="51517"
                     y="14157"
                     id="tspan379"><tspan
                       id="tspan381"
                       style="fill:#000000;stroke:none">worship.</tspan></tspan></tspan></text>
</g></g><g
             class="com.sun.star.drawing.CustomShape"
             id="g383"><g
               id="id12"><rect
                 class="BoundingBox"
                 x="47431"
                 y="15226"
                 width="9920"
                 height="2160"
                 id="rect386"
                 style="fill:none;stroke:none" /><path
                 d="m 48295,15227 c -432,0 -863,431 -863,863 l 0,430 c 0,432 431,864 863,864 l 8190,0 c 431,0 863,-432 863,-864 l 0,-430 c 0,-432 -432,-863 -863,-863 l -8190,0 z m -863,0 0,0 z m 9917,2157 0,0 z"
                 id="path388"
                 inkscape:connector-curvature="0"
                 style="fill:#d1d6e8;stroke:none" /><path
                 d="m 48295,15227 c -432,0 -863,431 -863,863 l 0,430 c 0,432 431,864 863,864 l 8190,0 c 431,0 863,-432 863,-864 l 0,-430 c 0,-432 -432,-863 -863,-863 l -8190,0 z"
                 id="path390"
                 inkscape:connector-curvature="0"
                 style="fill:none;stroke:#3465a4" /><path
                 d="m 47432,15227 0,0 z"
                 id="path392"
                 inkscape:connector-curvature="0"
                 style="fill:none;stroke:#3465a4" /><path
                 d="m 57349,17384 0,0 z"
                 id="path394"
                 inkscape:connector-curvature="0"
                 style="fill:none;stroke:#3465a4" /><text
                 class="TextShape"
                 id="text396"><tspan
                   class="TextParagraph"
                   font-size="494px"
                   font-weight="400"
                   id="tspan398"
                   style="font-weight:400;font-size:494px;font-family:'Liberation Sans', sans-serif"><tspan
                     class="TextPosition"
                     x="48510"
                     y="15922"
                     id="tspan400"><tspan
                       id="tspan402"
                       style="fill:#000000;stroke:none">A token Temple land in Fanling was </tspan></tspan><tspan
                     class="TextPosition"
                     x="48195"
                     y="16477"
                     id="tspan404"><tspan
                       id="tspan406"
                       style="fill:#000000;stroke:none">acquired, replacing the previous token </tspan></tspan><tspan
                     class="TextPosition"
                     x="49164"
                     y="17032"
                     id="tspan408"><tspan
                       id="tspan410"
                       style="fill:#000000;stroke:none">Temple site at Lamma Island.</tspan></tspan></tspan></text>
</g></g></g></g></g></g></svg>