<?xml version="1.0" encoding="UTF-8" standalone="no"?>
<svg
   xmlns:dc="http://purl.org/dc/elements/1.1/"
   xmlns:cc="http://creativecommons.org/ns#"
   xmlns:rdf="http://www.w3.org/1999/02/22-rdf-syntax-ns#"
   xmlns:svg="http://www.w3.org/2000/svg"
   xmlns="http://www.w3.org/2000/svg"
   xmlns:sodipodi="http://sodipodi.sourceforge.net/DTD/sodipodi-0.dtd"
   xmlns:inkscape="http://www.inkscape.org/namespaces/inkscape"
   version="1.2"
   width="112.88895mm"
   height="109.17004mm"
   viewBox="43526 24580 11288.895 10917.006"
   preserveAspectRatio="xMidYMid"
   xml:space="preserve"
   id="svg6424"
   inkscape:version="0.91 r13725"
   sodipodi:docname="hongKongTimeline-2-zh-hk.svg"
   style="fill-rule:evenodd;stroke-width:28.22200012;stroke-linejoin:round"><metadata
     id="metadata6895"><rdf:RDF><cc:Work
         rdf:about=""><dc:format>image/svg+xml</dc:format><dc:type
           rdf:resource="http://purl.org/dc/dcmitype/StillImage" /><dc:title></dc:title></cc:Work></rdf:RDF></metadata><sodipodi:namedview
     pagecolor="#ffffff"
     bordercolor="#666666"
     borderopacity="1"
     objecttolerance="10"
     gridtolerance="10"
     guidetolerance="10"
     inkscape:pageopacity="0"
     inkscape:pageshadow="2"
     inkscape:window-width="1855"
     inkscape:window-height="1056"
     id="namedview6893"
     showgrid="false"
     fit-margin-top="0"
     fit-margin-left="0"
     fit-margin-right="0"
     fit-margin-bottom="0"
     inkscape:zoom="1.9503853"
     inkscape:cx="200.0001"
     inkscape:cy="193.41151"
     inkscape:window-x="65"
     inkscape:window-y="24"
     inkscape:window-maximized="1"
     inkscape:current-layer="svg6424" /><defs
     class="ClipPathGroup"
     id="defs6426"><clipPath
       id="presentation_clip_path"
       clipPathUnits="userSpaceOnUse"><rect
         x="43526"
         y="24580"
         width="13751"
         height="13298"
         id="rect6429" /></clipPath></defs><defs
     id="defs6431" /><defs
     id="defs6586" /><defs
     class="TextShapeIndex"
     id="defs6611" /><defs
     class="EmbeddedBulletChars"
     id="defs6615" /><defs
     class="TextEmbeddedBitmaps"
     id="defs6644" /><g
     class="SlideGroup"
     id="g6646"
     transform="matrix(0.82095088,0,0,0.82095088,7793.2916,4401.0274)"><g
       id="g6648"><g
         id="id1"
         class="Slide"
         clip-path="url(#presentation_clip_path)"><g
           class="Page"
           id="g6651"><g
             class="com.sun.star.drawing.CustomShape"
             id="g6653"><g
               id="id3"><rect
                 class="BoundingBox"
                 x="43610"
                 y="24609"
                 width="2911"
                 height="2130"
                 id="rect6656"
                 style="fill:none;stroke:none" /><path
                 d="m 43965,24610 c -177,0 -354,177 -354,354 l 0,1418 c 0,177 177,355 354,355 l 2199,0 c 177,0 355,-178 355,-355 l 0,-1418 c 0,-177 -178,-354 -355,-354 l -2199,0 z m -354,0 0,0 z m 2908,2127 0,0 z"
                 id="path6658"
                 inkscape:connector-curvature="0"
                 style="fill:#f9d3b3;stroke:none" /><path
                 d="m 43965,24610 c -177,0 -354,177 -354,354 l 0,1418 c 0,177 177,355 354,355 l 2199,0 c 177,0 355,-178 355,-355 l 0,-1418 c 0,-177 -178,-354 -355,-354 l -2199,0 z"
                 id="path6660"
                 inkscape:connector-curvature="0"
                 style="fill:none;stroke:#3465a4" /><path
                 d="m 43611,24610 0,0 z"
                 id="path6662"
                 inkscape:connector-curvature="0"
                 style="fill:none;stroke:#3465a4" /><path
                 d="m 46519,26737 0,0 z"
                 id="path6664"
                 inkscape:connector-curvature="0"
                 style="fill:none;stroke:#3465a4" /><text
                 class="TextShape"
                 id="text6666"><tspan
                   class="TextParagraph"
                   font-size="988px"
                   font-weight="400"
                   id="tspan6668"
                   style="font-weight:400;font-size:988px;font-family:'Liberation Sans', sans-serif"><tspan
                     class="TextPosition"
                     x="43964"
                     y="26016"
                     id="tspan6670"><tspan
                       id="tspan6672"
                       style="fill:#000000;stroke:none">1969</tspan></tspan></tspan></text>
</g></g><g
             class="com.sun.star.drawing.CustomShape"
             id="g6674"><g
               id="id4"><rect
                 class="BoundingBox"
                 x="43567"
                 y="27274"
                 width="2911"
                 height="2130"
                 id="rect6677"
                 style="fill:none;stroke:none" /><path
                 d="m 43922,27275 c -177,0 -354,177 -354,354 l 0,1418 c 0,177 177,355 354,355 l 2199,0 c 177,0 355,-178 355,-355 l 0,-1418 c 0,-177 -178,-354 -355,-354 l -2199,0 z m -354,0 0,0 z m 2908,2127 0,0 z"
                 id="path6679"
                 inkscape:connector-curvature="0"
                 style="fill:#f9d3b3;stroke:none" /><path
                 d="m 43922,27275 c -177,0 -354,177 -354,354 l 0,1418 c 0,177 177,355 354,355 l 2199,0 c 177,0 355,-178 355,-355 l 0,-1418 c 0,-177 -178,-354 -355,-354 l -2199,0 z"
                 id="path6681"
                 inkscape:connector-curvature="0"
                 style="fill:none;stroke:#3465a4" /><path
                 d="m 43568,27275 0,0 z"
                 id="path6683"
                 inkscape:connector-curvature="0"
                 style="fill:none;stroke:#3465a4" /><path
                 d="m 46476,29402 0,0 z"
                 id="path6685"
                 inkscape:connector-curvature="0"
                 style="fill:none;stroke:#3465a4" /><text
                 class="TextShape"
                 id="text6687"><tspan
                   class="TextParagraph"
                   font-size="988px"
                   font-weight="400"
                   id="tspan6689"
                   style="font-weight:400;font-size:988px;font-family:'Liberation Sans', sans-serif"><tspan
                     class="TextPosition"
                     x="43921"
                     y="28681"
                     id="tspan6691"><tspan
                       id="tspan6693"
                       style="fill:#000000;stroke:none">1974</tspan></tspan></tspan></text>
</g></g><g
             class="com.sun.star.drawing.CustomShape"
             id="g6695"><g
               id="id5"><rect
                 class="BoundingBox"
                 x="43567"
                 y="29999"
                 width="2911"
                 height="2130"
                 id="rect6698"
                 style="fill:none;stroke:none" /><path
                 d="m 43922,30000 c -177,0 -354,177 -354,354 l 0,1418 c 0,177 177,355 354,355 l 2199,0 c 177,0 355,-178 355,-355 l 0,-1418 c 0,-177 -178,-354 -355,-354 l -2199,0 z m -354,0 0,0 z m 2908,2127 0,0 z"
                 id="path6700"
                 inkscape:connector-curvature="0"
                 style="fill:#f9d3b3;stroke:none" /><path
                 d="m 43922,30000 c -177,0 -354,177 -354,354 l 0,1418 c 0,177 177,355 354,355 l 2199,0 c 177,0 355,-178 355,-355 l 0,-1418 c 0,-177 -178,-354 -355,-354 l -2199,0 z"
                 id="path6702"
                 inkscape:connector-curvature="0"
                 style="fill:none;stroke:#3465a4" /><path
                 d="m 43568,30000 0,0 z"
                 id="path6704"
                 inkscape:connector-curvature="0"
                 style="fill:none;stroke:#3465a4" /><path
                 d="m 46476,32127 0,0 z"
                 id="path6706"
                 inkscape:connector-curvature="0"
                 style="fill:none;stroke:#3465a4" /><text
                 class="TextShape"
                 id="text6708"><tspan
                   class="TextParagraph"
                   font-size="988px"
                   font-weight="400"
                   id="tspan6710"
                   style="font-weight:400;font-size:988px;font-family:'Liberation Sans', sans-serif"><tspan
                     class="TextPosition"
                     x="43921"
                     y="31406"
                     id="tspan6712"><tspan
                       id="tspan6714"
                       style="fill:#000000;stroke:none">1988</tspan></tspan></tspan></text>
</g></g><g
             class="com.sun.star.drawing.CustomShape"
             id="g6716"><g
               id="id6"><rect
                 class="BoundingBox"
                 x="43567"
                 y="32873"
                 width="2911"
                 height="2129"
                 id="rect6719"
                 style="fill:none;stroke:none" /><path
                 d="m 43922,32874 c -177,0 -354,177 -354,354 l 0,1417 c 0,177 177,355 354,355 l 2199,0 c 177,0 355,-178 355,-355 l 0,-1417 c 0,-177 -178,-354 -355,-354 l -2199,0 z m -354,0 0,0 z m 2908,2126 0,0 z"
                 id="path6721"
                 inkscape:connector-curvature="0"
                 style="fill:#f9d3b3;stroke:none" /><path
                 d="m 43922,32874 c -177,0 -354,177 -354,354 l 0,1417 c 0,177 177,355 354,355 l 2199,0 c 177,0 355,-178 355,-355 l 0,-1417 c 0,-177 -178,-354 -355,-354 l -2199,0 z"
                 id="path6723"
                 inkscape:connector-curvature="0"
                 style="fill:none;stroke:#3465a4" /><path
                 d="m 43568,32874 0,0 z"
                 id="path6725"
                 inkscape:connector-curvature="0"
                 style="fill:none;stroke:#3465a4" /><path
                 d="m 46476,35000 0,0 z"
                 id="path6727"
                 inkscape:connector-curvature="0"
                 style="fill:none;stroke:#3465a4" /><text
                 class="TextShape"
                 id="text6729"><tspan
                   class="TextParagraph"
                   font-size="988px"
                   font-weight="400"
                   id="tspan6731"
                   style="font-weight:400;font-size:988px;font-family:'Liberation Sans', sans-serif"><tspan
                     class="TextPosition"
                     x="43921"
                     y="34279"
                     id="tspan6733"><tspan
                       id="tspan6735"
                       style="fill:#000000;stroke:none">1990</tspan></tspan></tspan></text>
</g></g><g
             class="com.sun.star.drawing.CustomShape"
             id="g6737"><g
               id="id7"><rect
                 class="BoundingBox"
                 x="43525"
                 y="35749"
                 width="2911"
                 height="2130"
                 id="rect6740"
                 style="fill:none;stroke:none" /><path
                 d="m 43880,35750 c -177,0 -354,177 -354,354 l 0,1418 c 0,177 177,355 354,355 l 2199,0 c 177,0 355,-178 355,-355 l 0,-1418 c 0,-177 -178,-354 -355,-354 l -2199,0 z m -354,0 0,0 z m 2908,2127 0,0 z"
                 id="path6742"
                 inkscape:connector-curvature="0"
                 style="fill:#f9d3b3;stroke:none" /><path
                 d="m 43880,35750 c -177,0 -354,177 -354,354 l 0,1418 c 0,177 177,355 354,355 l 2199,0 c 177,0 355,-178 355,-355 l 0,-1418 c 0,-177 -178,-354 -355,-354 l -2199,0 z"
                 id="path6744"
                 inkscape:connector-curvature="0"
                 style="fill:none;stroke:#3465a4" /><path
                 d="m 43526,35750 0,0 z"
                 id="path6746"
                 inkscape:connector-curvature="0"
                 style="fill:none;stroke:#3465a4" /><path
                 d="m 46434,37877 0,0 z"
                 id="path6748"
                 inkscape:connector-curvature="0"
                 style="fill:none;stroke:#3465a4" /><text
                 class="TextShape"
                 id="text6750"><tspan
                   class="TextParagraph"
                   font-size="988px"
                   font-weight="400"
                   id="tspan6752"
                   style="font-weight:400;font-size:988px;font-family:'Liberation Sans', sans-serif"><tspan
                     class="TextPosition"
                     x="43879"
                     y="37156"
                     id="tspan6754"><tspan
                       id="tspan6756"
                       style="fill:#000000;stroke:none">2015</tspan></tspan></tspan></text>
</g></g><g
             class="com.sun.star.drawing.CustomShape"
             id="g6758"><g
               id="id8"><rect
                 class="BoundingBox"
                 x="47358"
                 y="24579"
                 width="9920"
                 height="2160"
                 id="rect6761"
                 style="fill:none;stroke:none" /><path
                 d="m 48222,24580 c -432,0 -863,431 -863,863 l 0,430 c 0,432 431,864 863,864 l 8190,0 c 431,0 863,-432 863,-864 l 0,-430 c 0,-432 -432,-863 -863,-863 l -8190,0 z m -863,0 0,0 z m 9917,2157 0,0 z"
                 id="path6763"
                 inkscape:connector-curvature="0"
                 style="fill:#d1d6e8;stroke:none" /><path
                 d="m 48222,24580 c -432,0 -863,431 -863,863 l 0,430 c 0,432 431,864 863,864 l 8190,0 c 431,0 863,-432 863,-864 l 0,-430 c 0,-432 -432,-863 -863,-863 l -8190,0 z"
                 id="path6765"
                 inkscape:connector-curvature="0"
                 style="fill:none;stroke:#3465a4" /><path
                 d="m 47359,24580 0,0 z"
                 id="path6767"
                 inkscape:connector-curvature="0"
                 style="fill:none;stroke:#3465a4" /><path
                 d="m 57276,26737 0,0 z"
                 id="path6769"
                 inkscape:connector-curvature="0"
                 style="fill:none;stroke:#3465a4" /><text
                 class="TextShape"
                 id="text6771"><tspan
                   class="TextParagraph"
                   font-size="494px"
                   font-weight="400"
                   id="tspan6773"
                   style="font-weight:400;font-size:494px;font-family:FreeSans, sans-serif"><tspan
                     class="TextPosition"
                     x="48107"
                     y="25290"
                     id="tspan6775"><tspan
                       id="tspan6777"
                       style="fill:#000000;stroke:none">「香港巴哈伊總會」在《公司條例》下</tspan></tspan><tspan
                     class="TextPosition"
                     x="48355"
                     y="25832"
                     id="tspan6779"><tspan
                       id="tspan6781"
                       style="fill:#000000;stroke:none">成立，並獲得法定認可的慈善機構地</tspan></tspan><tspan
                     class="TextPosition"
                     x="51822"
                     y="26374"
                     id="tspan6783"><tspan
                       id="tspan6785"
                       style="fill:#000000;stroke:none">位。</tspan></tspan></tspan></text>
</g></g><g
             class="com.sun.star.drawing.CustomShape"
             id="g6787"><g
               id="id9"><rect
                 class="BoundingBox"
                 x="47358"
                 y="27274"
                 width="9920"
                 height="2160"
                 id="rect6790"
                 style="fill:none;stroke:none" /><path
                 d="m 48222,27275 c -432,0 -863,431 -863,863 l 0,430 c 0,432 431,864 863,864 l 8190,0 c 431,0 863,-432 863,-864 l 0,-430 c 0,-432 -432,-863 -863,-863 l -8190,0 z m -863,0 0,0 z m 9917,2157 0,0 z"
                 id="path6792"
                 inkscape:connector-curvature="0"
                 style="fill:#d1d6e8;stroke:none" /><path
                 d="m 48222,27275 c -432,0 -863,431 -863,863 l 0,430 c 0,432 431,864 863,864 l 8190,0 c 431,0 863,-432 863,-864 l 0,-430 c 0,-432 -432,-863 -863,-863 l -8190,0 z"
                 id="path6794"
                 inkscape:connector-curvature="0"
                 style="fill:none;stroke:#3465a4" /><path
                 d="m 47359,27275 0,0 z"
                 id="path6796"
                 inkscape:connector-curvature="0"
                 style="fill:none;stroke:#3465a4" /><path
                 d="m 57276,29432 0,0 z"
                 id="path6798"
                 inkscape:connector-curvature="0"
                 style="fill:none;stroke:#3465a4" /><text
                 class="TextShape"
                 id="text6800"><tspan
                   class="TextParagraph"
                   font-size="494px"
                   font-weight="400"
                   id="tspan6802"
                   style="font-weight:400;font-size:494px;font-family:FreeSans, sans-serif"><tspan
                     class="TextPosition"
                     x="48355"
                     y="28256"
                     id="tspan6804"><tspan
                       id="tspan6806"
                       style="fill:#000000;stroke:none">首屈「香港巴哈伊國家</tspan><tspan
                       id="tspan6808"
                       style="fill:#000000;stroke:none">總會」正式選</tspan></tspan><tspan
                     class="TextPosition"
                     x="51822"
                     y="28798"
                     id="tspan6810"><tspan
                       id="tspan6812"
                       style="fill:#000000;stroke:none">出。</tspan></tspan></tspan></text>
</g></g><g
             class="com.sun.star.drawing.CustomShape"
             id="g6814"><g
               id="id10"><rect
                 class="BoundingBox"
                 x="47358"
                 y="29967"
                 width="9920"
                 height="2161"
                 id="rect6817"
                 style="fill:none;stroke:none" /><path
                 d="m 48222,29968 c -432,0 -863,431 -863,863 l 0,431 c 0,432 431,864 863,864 l 8190,0 c 431,0 863,-432 863,-864 l 0,-431 c 0,-432 -432,-863 -863,-863 l -8190,0 z m -863,0 0,0 z m 9917,2158 0,0 z"
                 id="path6819"
                 inkscape:connector-curvature="0"
                 style="fill:#d1d6e8;stroke:none" /><path
                 d="m 48222,29968 c -432,0 -863,431 -863,863 l 0,431 c 0,432 431,864 863,864 l 8190,0 c 431,0 863,-432 863,-864 l 0,-431 c 0,-432 -432,-863 -863,-863 l -8190,0 z"
                 id="path6821"
                 inkscape:connector-curvature="0"
                 style="fill:none;stroke:#3465a4" /><path
                 d="m 47359,29968 0,0 z"
                 id="path6823"
                 inkscape:connector-curvature="0"
                 style="fill:none;stroke:#3465a4" /><path
                 d="m 57276,32126 0,0 z"
                 id="path6825"
                 inkscape:connector-curvature="0"
                 style="fill:none;stroke:#3465a4" /><text
                 class="TextShape"
                 id="text6827"><tspan
                   class="TextParagraph"
                   font-size="494px"
                   font-weight="400"
                   id="tspan6829"
                   style="font-weight:400;font-size:494px;font-family:FreeSans, sans-serif"><tspan
                     class="TextPosition"
                     x="48107"
                     y="30950"
                     id="tspan6831"><tspan
                       id="tspan6833"
                       style="fill:#000000;stroke:none">「香港巴哈伊總會」根據《香港巴哈伊</tspan></tspan><tspan
                     class="TextPosition"
                     x="49841"
                     y="31492"
                     id="tspan6835"><tspan
                       id="tspan6837"
                       style="fill:#000000;stroke:none">總會法團條例》成立。</tspan></tspan></tspan></text>
</g></g><g
             class="com.sun.star.drawing.CustomShape"
             id="g6839"><g
               id="id11"><rect
                 class="BoundingBox"
                 x="47358"
                 y="32843"
                 width="9920"
                 height="2159"
                 id="rect6842"
                 style="fill:none;stroke:none" /><path
                 d="m 48222,32844 c -432,0 -863,431 -863,863 l 0,429 c 0,432 431,864 863,864 l 8190,0 c 432,0 864,-432 864,-864 l 0,-429 c 0,-432 -432,-863 -864,-863 l -8190,0 z m -863,0 0,0 z m 9917,2156 0,0 z"
                 id="path6844"
                 inkscape:connector-curvature="0"
                 style="fill:#d1d6e8;stroke:none" /><path
                 d="m 48222,32844 c -432,0 -863,431 -863,863 l 0,429 c 0,432 431,864 863,864 l 8190,0 c 432,0 864,-432 864,-864 l 0,-429 c 0,-432 -432,-863 -864,-863 l -8190,0 z"
                 id="path6846"
                 inkscape:connector-curvature="0"
                 style="fill:none;stroke:#3465a4" /><path
                 d="m 47359,32844 0,0 z"
                 id="path6848"
                 inkscape:connector-curvature="0"
                 style="fill:none;stroke:#3465a4" /><path
                 d="m 57276,35000 0,0 z"
                 id="path6850"
                 inkscape:connector-curvature="0"
                 style="fill:none;stroke:#3465a4" /><text
                 class="TextShape"
                 id="text6852"><tspan
                   class="TextParagraph"
                   font-size="494px"
                   font-weight="400"
                   id="tspan6854"
                   style="font-weight:400;font-size:494px;font-family:FreeSans, sans-serif"><tspan
                     class="TextPosition"
                     x="48107"
                     y="33825"
                     id="tspan6856"><tspan
                       id="tspan6858"
                       style="fill:#000000;stroke:none">位於銅鑼灣的巴哈伊禮堂獲得法定認可</tspan></tspan><tspan
                     class="TextPosition"
                     x="49841"
                     y="34367"
                     id="tspan6860"><tspan
                       id="tspan6862"
                       style="fill:#000000;stroke:none">之公眾禮拜場所的地位</tspan></tspan></tspan></text>
</g></g><g
             class="com.sun.star.drawing.CustomShape"
             id="g6864"><g
               id="id12"><rect
                 class="BoundingBox"
                 x="47305"
                 y="35719"
                 width="9919"
                 height="2160"
                 id="rect6867"
                 style="fill:none;stroke:none" /><path
                 d="m 48169,35720 c -432,0 -863,431 -863,863 l 0,430 c 0,432 431,864 863,864 l 8189,0 c 432,0 864,-432 864,-864 l 0,-430 c 0,-432 -432,-863 -864,-863 l -8189,0 z m -863,0 0,0 z m 9916,2157 0,0 z"
                 id="path6869"
                 inkscape:connector-curvature="0"
                 style="fill:#d1d6e8;stroke:none" /><path
                 d="m 48169,35720 c -432,0 -863,431 -863,863 l 0,430 c 0,432 431,864 863,864 l 8189,0 c 432,0 864,-432 864,-864 l 0,-430 c 0,-432 -432,-863 -864,-863 l -8189,0 z"
                 id="path6871"
                 inkscape:connector-curvature="0"
                 style="fill:none;stroke:#3465a4" /><path
                 d="m 47306,35720 0,0 z"
                 id="path6873"
                 inkscape:connector-curvature="0"
                 style="fill:none;stroke:#3465a4" /><path
                 d="m 57222,37877 0,0 z"
                 id="path6875"
                 inkscape:connector-curvature="0"
                 style="fill:none;stroke:#3465a4" /><text
                 class="TextShape"
                 id="text6877"><tspan
                   class="TextParagraph"
                   font-size="494px"
                   font-weight="400"
                   id="tspan6879"
                   style="font-weight:400;font-size:494px;font-family:FreeSans, sans-serif"><tspan
                     class="TextPosition"
                     x="48054"
                     y="36430"
                     id="tspan6881"><tspan
                       id="tspan6883"
                       style="fill:#000000;stroke:none">購入一幅位於粉嶺的靈曦堂象徵土地，</tspan></tspan><tspan
                     class="TextPosition"
                     x="48301"
                     y="36972"
                     id="tspan6885"><tspan
                       id="tspan6887"
                       style="fill:#000000;stroke:none">取代之前位於南丫島的靈曦堂象徵土</tspan></tspan><tspan
                     class="TextPosition"
                     x="51768"
                     y="37514"
                     id="tspan6889"><tspan
                       id="tspan6891"
                       style="fill:#000000;stroke:none">地。</tspan></tspan></tspan></text>
</g></g></g></g></g></g></svg>