<?xml version="1.0" encoding="UTF-8" standalone="no"?>
<svg
   xmlns:dc="http://purl.org/dc/elements/1.1/"
   xmlns:cc="http://creativecommons.org/ns#"
   xmlns:rdf="http://www.w3.org/1999/02/22-rdf-syntax-ns#"
   xmlns:svg="http://www.w3.org/2000/svg"
   xmlns="http://www.w3.org/2000/svg"
   xmlns:sodipodi="http://sodipodi.sourceforge.net/DTD/sodipodi-0.dtd"
   xmlns:inkscape="http://www.inkscape.org/namespaces/inkscape"
   version="1.2"
   width="112.88894mm"
   height="131.28644mm"
   viewBox="21971 43059 11288.894 13128.644"
   preserveAspectRatio="xMidYMid"
   xml:space="preserve"
   id="svg5895"
   inkscape:version="0.91 r13725"
   sodipodi:docname="hongKongTimeline-zh-cn.svg"
   style="fill-rule:evenodd;stroke-width:28.22200012;stroke-linejoin:round"><metadata
     id="metadata6444"><rdf:RDF><cc:Work
         rdf:about=""><dc:format>image/svg+xml</dc:format><dc:type
           rdf:resource="http://purl.org/dc/dcmitype/StillImage" /><dc:title></dc:title></cc:Work></rdf:RDF></metadata><sodipodi:namedview
     pagecolor="#ffffff"
     bordercolor="#666666"
     borderopacity="1"
     objecttolerance="10"
     gridtolerance="10"
     guidetolerance="10"
     inkscape:pageopacity="0"
     inkscape:pageshadow="2"
     inkscape:window-width="1855"
     inkscape:window-height="1056"
     id="namedview6442"
     showgrid="false"
     fit-margin-top="0"
     fit-margin-left="0"
     fit-margin-right="0"
     fit-margin-bottom="0"
     inkscape:zoom="1.6218248"
     inkscape:cx="200.00008"
     inkscape:cy="232.59408"
     inkscape:window-x="65"
     inkscape:window-y="24"
     inkscape:window-maximized="1"
     inkscape:current-layer="svg5895" /><defs
     class="ClipPathGroup"
     id="defs5897"><clipPath
       id="presentation_clip_path"
       clipPathUnits="userSpaceOnUse"><rect
         x="21971"
         y="43059"
         width="13751"
         height="15992"
         id="rect5900" /></clipPath></defs><defs
     id="defs5902" /><defs
     id="defs6101" /><defs
     class="TextShapeIndex"
     id="defs6124" /><defs
     class="EmbeddedBulletChars"
     id="defs6128" /><defs
     class="TextEmbeddedBitmaps"
     id="defs6157" /><g
     class="SlideGroup"
     id="g6159"
     transform="matrix(0.8209508,0,0,0.8209508,3933.8895,7709.6791)"><g
       id="g6161"><g
         id="id1"
         class="Slide"
         clip-path="url(#presentation_clip_path)"><g
           class="Page"
           id="g6164"><g
             class="com.sun.star.drawing.CustomShape"
             id="g6166"><g
               id="id3"><rect
                 class="BoundingBox"
                 x="22055"
                 y="43088"
                 width="2911"
                 height="2130"
                 id="rect6169"
                 style="fill:none;stroke:none" /><path
                 d="m 22410,43089 c -177,0 -354,177 -354,354 l 0,1418 c 0,177 177,355 354,355 l 2199,0 c 177,0 355,-178 355,-355 l 0,-1418 c 0,-177 -178,-354 -355,-354 l -2199,0 z m -354,0 0,0 z m 2908,2127 0,0 z"
                 id="path6171"
                 inkscape:connector-curvature="0"
                 style="fill:#f9d3b3;stroke:none" /><path
                 d="m 22410,43089 c -177,0 -354,177 -354,354 l 0,1418 c 0,177 177,355 354,355 l 2199,0 c 177,0 355,-178 355,-355 l 0,-1418 c 0,-177 -178,-354 -355,-354 l -2199,0 z"
                 id="path6173"
                 inkscape:connector-curvature="0"
                 style="fill:none;stroke:#3465a4" /><path
                 d="m 22056,43089 0,0 z"
                 id="path6175"
                 inkscape:connector-curvature="0"
                 style="fill:none;stroke:#3465a4" /><path
                 d="m 24964,45216 0,0 z"
                 id="path6177"
                 inkscape:connector-curvature="0"
                 style="fill:none;stroke:#3465a4" /><text
                 class="TextShape"
                 id="text6179"><tspan
                   class="TextParagraph"
                   font-size="988px"
                   font-weight="400"
                   id="tspan6181"
                   style="font-weight:400;font-size:988px;font-family:'Liberation Sans', sans-serif"><tspan
                     class="TextPosition"
                     x="22409"
                     y="44495"
                     id="tspan6183"><tspan
                       id="tspan6185"
                       style="fill:#000000;stroke:none">1879</tspan></tspan></tspan></text>
</g></g><g
             class="com.sun.star.drawing.CustomShape"
             id="g6187"><g
               id="id4"><rect
                 class="BoundingBox"
                 x="22012"
                 y="45753"
                 width="2911"
                 height="2130"
                 id="rect6190"
                 style="fill:none;stroke:none" /><path
                 d="m 22367,45754 c -177,0 -354,177 -354,354 l 0,1418 c 0,177 177,355 354,355 l 2199,0 c 177,0 355,-178 355,-355 l 0,-1418 c 0,-177 -178,-354 -355,-354 l -2199,0 z m -354,0 0,0 z m 2908,2127 0,0 z"
                 id="path6192"
                 inkscape:connector-curvature="0"
                 style="fill:#f9d3b3;stroke:none" /><path
                 d="m 22367,45754 c -177,0 -354,177 -354,354 l 0,1418 c 0,177 177,355 354,355 l 2199,0 c 177,0 355,-178 355,-355 l 0,-1418 c 0,-177 -178,-354 -355,-354 l -2199,0 z"
                 id="path6194"
                 inkscape:connector-curvature="0"
                 style="fill:none;stroke:#3465a4" /><path
                 d="m 22013,45754 0,0 z"
                 id="path6196"
                 inkscape:connector-curvature="0"
                 style="fill:none;stroke:#3465a4" /><path
                 d="m 24921,47881 0,0 z"
                 id="path6198"
                 inkscape:connector-curvature="0"
                 style="fill:none;stroke:#3465a4" /><text
                 class="TextShape"
                 id="text6200"><tspan
                   class="TextParagraph"
                   font-size="988px"
                   font-weight="400"
                   id="tspan6202"
                   style="font-weight:400;font-size:988px;font-family:'Liberation Sans', sans-serif"><tspan
                     class="TextPosition"
                     x="22366"
                     y="47160"
                     id="tspan6204"><tspan
                       id="tspan6206"
                       style="fill:#000000;stroke:none">1924</tspan></tspan></tspan></text>
</g></g><g
             class="com.sun.star.drawing.CustomShape"
             id="g6208"><g
               id="id5"><rect
                 class="BoundingBox"
                 x="22012"
                 y="48478"
                 width="2911"
                 height="2130"
                 id="rect6211"
                 style="fill:none;stroke:none" /><path
                 d="m 22367,48479 c -177,0 -354,177 -354,354 l 0,1418 c 0,177 177,355 354,355 l 2199,0 c 177,0 355,-178 355,-355 l 0,-1418 c 0,-177 -178,-354 -355,-354 l -2199,0 z m -354,0 0,0 z m 2908,2127 0,0 z"
                 id="path6213"
                 inkscape:connector-curvature="0"
                 style="fill:#f9d3b3;stroke:none" /><path
                 d="m 22367,48479 c -177,0 -354,177 -354,354 l 0,1418 c 0,177 177,355 354,355 l 2199,0 c 177,0 355,-178 355,-355 l 0,-1418 c 0,-177 -178,-354 -355,-354 l -2199,0 z"
                 id="path6215"
                 inkscape:connector-curvature="0"
                 style="fill:none;stroke:#3465a4" /><path
                 d="m 22013,48479 0,0 z"
                 id="path6217"
                 inkscape:connector-curvature="0"
                 style="fill:none;stroke:#3465a4" /><path
                 d="m 24921,50606 0,0 z"
                 id="path6219"
                 inkscape:connector-curvature="0"
                 style="fill:none;stroke:#3465a4" /><text
                 class="TextShape"
                 id="text6221"><tspan
                   class="TextParagraph"
                   font-size="988px"
                   font-weight="400"
                   id="tspan6223"
                   style="font-weight:400;font-size:988px;font-family:'Liberation Sans', sans-serif"><tspan
                     class="TextPosition"
                     x="22366"
                     y="49885"
                     id="tspan6225"><tspan
                       id="tspan6227"
                       style="fill:#000000;stroke:none">1924</tspan></tspan></tspan></text>
</g></g><g
             class="com.sun.star.drawing.CustomShape"
             id="g6229"><g
               id="id6"><rect
                 class="BoundingBox"
                 x="22012"
                 y="51352"
                 width="2911"
                 height="2129"
                 id="rect6232"
                 style="fill:none;stroke:none" /><path
                 d="m 22367,51353 c -177,0 -354,177 -354,354 l 0,1417 c 0,177 177,355 354,355 l 2199,0 c 177,0 355,-178 355,-355 l 0,-1417 c 0,-177 -178,-354 -355,-354 l -2199,0 z m -354,0 0,0 z m 2908,2126 0,0 z"
                 id="path6234"
                 inkscape:connector-curvature="0"
                 style="fill:#f9d3b3;stroke:none" /><path
                 d="m 22367,51353 c -177,0 -354,177 -354,354 l 0,1417 c 0,177 177,355 354,355 l 2199,0 c 177,0 355,-178 355,-355 l 0,-1417 c 0,-177 -178,-354 -355,-354 l -2199,0 z"
                 id="path6236"
                 inkscape:connector-curvature="0"
                 style="fill:none;stroke:#3465a4" /><path
                 d="m 22013,51353 0,0 z"
                 id="path6238"
                 inkscape:connector-curvature="0"
                 style="fill:none;stroke:#3465a4" /><path
                 d="m 24921,53479 0,0 z"
                 id="path6240"
                 inkscape:connector-curvature="0"
                 style="fill:none;stroke:#3465a4" /><text
                 class="TextShape"
                 id="text6242"><tspan
                   class="TextParagraph"
                   font-size="988px"
                   font-weight="400"
                   id="tspan6244"
                   style="font-weight:400;font-size:988px;font-family:'Liberation Sans', sans-serif"><tspan
                     class="TextPosition"
                     x="22366"
                     y="52758"
                     id="tspan6246"><tspan
                       id="tspan6248"
                       style="fill:#000000;stroke:none">1956</tspan></tspan></tspan></text>
</g></g><g
             class="com.sun.star.drawing.CustomShape"
             id="g6250"><g
               id="id7"><rect
                 class="BoundingBox"
                 x="21970"
                 y="54228"
                 width="2911"
                 height="2130"
                 id="rect6253"
                 style="fill:none;stroke:none" /><path
                 d="m 22325,54229 c -177,0 -354,177 -354,354 l 0,1418 c 0,177 177,355 354,355 l 2199,0 c 177,0 355,-178 355,-355 l 0,-1418 c 0,-177 -178,-354 -355,-354 l -2199,0 z m -354,0 0,0 z m 2908,2127 0,0 z"
                 id="path6255"
                 inkscape:connector-curvature="0"
                 style="fill:#f9d3b3;stroke:none" /><path
                 d="m 22325,54229 c -177,0 -354,177 -354,354 l 0,1418 c 0,177 177,355 354,355 l 2199,0 c 177,0 355,-178 355,-355 l 0,-1418 c 0,-177 -178,-354 -355,-354 l -2199,0 z"
                 id="path6257"
                 inkscape:connector-curvature="0"
                 style="fill:none;stroke:#3465a4" /><path
                 d="m 21971,54229 0,0 z"
                 id="path6259"
                 inkscape:connector-curvature="0"
                 style="fill:none;stroke:#3465a4" /><path
                 d="m 24879,56356 0,0 z"
                 id="path6261"
                 inkscape:connector-curvature="0"
                 style="fill:none;stroke:#3465a4" /><text
                 class="TextShape"
                 id="text6263"><tspan
                   class="TextParagraph"
                   font-size="988px"
                   font-weight="400"
                   id="tspan6265"
                   style="font-weight:400;font-size:988px;font-family:'Liberation Sans', sans-serif"><tspan
                     class="TextPosition"
                     x="22324"
                     y="55635"
                     id="tspan6267"><tspan
                       id="tspan6269"
                       style="fill:#000000;stroke:none">1958</tspan></tspan></tspan></text>
</g></g><g
             class="com.sun.star.drawing.CustomShape"
             id="g6271"><g
               id="id8"><rect
                 class="BoundingBox"
                 x="21970"
                 y="56923"
                 width="2911"
                 height="2129"
                 id="rect6274"
                 style="fill:none;stroke:none" /><path
                 d="m 22325,56924 c -177,0 -354,177 -354,354 l 0,1417 c 0,177 177,355 354,355 l 2199,0 c 177,0 355,-178 355,-355 l 0,-1417 c 0,-177 -178,-354 -355,-354 l -2199,0 z m -354,0 0,0 z m 2908,2126 0,0 z"
                 id="path6276"
                 inkscape:connector-curvature="0"
                 style="fill:#f9d3b3;stroke:none" /><path
                 d="m 22325,56924 c -177,0 -354,177 -354,354 l 0,1417 c 0,177 177,355 354,355 l 2199,0 c 177,0 355,-178 355,-355 l 0,-1417 c 0,-177 -178,-354 -355,-354 l -2199,0 z"
                 id="path6278"
                 inkscape:connector-curvature="0"
                 style="fill:none;stroke:#3465a4" /><path
                 d="m 21971,56924 0,0 z"
                 id="path6280"
                 inkscape:connector-curvature="0"
                 style="fill:none;stroke:#3465a4" /><path
                 d="m 24879,59050 0,0 z"
                 id="path6282"
                 inkscape:connector-curvature="0"
                 style="fill:none;stroke:#3465a4" /><text
                 class="TextShape"
                 id="text6284"><tspan
                   class="TextParagraph"
                   font-size="988px"
                   font-weight="400"
                   id="tspan6286"
                   style="font-weight:400;font-size:988px;font-family:'Liberation Sans', sans-serif"><tspan
                     class="TextPosition"
                     x="22324"
                     y="58329"
                     id="tspan6288"><tspan
                       id="tspan6290"
                       style="fill:#000000;stroke:none">1968</tspan></tspan></tspan></text>
</g></g><g
             class="com.sun.star.drawing.CustomShape"
             id="g6292"><g
               id="id9"><rect
                 class="BoundingBox"
                 x="25803"
                 y="43058"
                 width="9920"
                 height="2160"
                 id="rect6295"
                 style="fill:none;stroke:none" /><path
                 d="m 26667,43059 c -432,0 -863,431 -863,863 l 0,430 c 0,432 431,864 863,864 l 8190,0 c 431,0 863,-432 863,-864 l 0,-430 c 0,-432 -432,-863 -863,-863 l -8190,0 z m -863,0 0,0 z m 9917,2157 0,0 z"
                 id="path6297"
                 inkscape:connector-curvature="0"
                 style="fill:#d1d6e8;stroke:none" /><path
                 d="m 26667,43059 c -432,0 -863,431 -863,863 l 0,430 c 0,432 431,864 863,864 l 8190,0 c 431,0 863,-432 863,-864 l 0,-430 c 0,-432 -432,-863 -863,-863 l -8190,0 z"
                 id="path6299"
                 inkscape:connector-curvature="0"
                 style="fill:none;stroke:#3465a4" /><path
                 d="m 25804,43059 0,0 z"
                 id="path6301"
                 inkscape:connector-curvature="0"
                 style="fill:none;stroke:#3465a4" /><path
                 d="m 35721,45216 0,0 z"
                 id="path6303"
                 inkscape:connector-curvature="0"
                 style="fill:none;stroke:#3465a4" /><text
                 class="TextShape"
                 id="text6305"><tspan
                   class="TextParagraph"
                   font-size="494px"
                   font-weight="400"
                   id="tspan6307"
                   style="font-weight:400;font-size:494px;font-family:FreeSans, sans-serif"><tspan
                     class="TextPosition"
                     x="26800"
                     y="44311"
                     id="tspan6309"><tspan
                       id="tspan6311"
                       style="fill:#000000;stroke:none">巴孛的一位表亲在香港生活和经商。</tspan></tspan></tspan></text>
</g></g><g
             class="com.sun.star.drawing.CustomShape"
             id="g6313"><g
               id="id10"><rect
                 class="BoundingBox"
                 x="25803"
                 y="45753"
                 width="9920"
                 height="2160"
                 id="rect6316"
                 style="fill:none;stroke:none" /><path
                 d="m 26667,45754 c -432,0 -863,431 -863,863 l 0,430 c 0,432 431,864 863,864 l 8190,0 c 431,0 863,-432 863,-864 l 0,-430 c 0,-432 -432,-863 -863,-863 l -8190,0 z m -863,0 0,0 z m 9917,2157 0,0 z"
                 id="path6318"
                 inkscape:connector-curvature="0"
                 style="fill:#d1d6e8;stroke:none" /><path
                 d="m 26667,45754 c -432,0 -863,431 -863,863 l 0,430 c 0,432 431,864 863,864 l 8190,0 c 431,0 863,-432 863,-864 l 0,-430 c 0,-432 -432,-863 -863,-863 l -8190,0 z"
                 id="path6320"
                 inkscape:connector-curvature="0"
                 style="fill:none;stroke:#3465a4" /><path
                 d="m 25804,45754 0,0 z"
                 id="path6322"
                 inkscape:connector-curvature="0"
                 style="fill:none;stroke:#3465a4" /><path
                 d="m 35721,47911 0,0 z"
                 id="path6324"
                 inkscape:connector-curvature="0"
                 style="fill:none;stroke:#3465a4" /><text
                 class="TextShape"
                 id="text6326"><tspan
                   class="TextParagraph"
                   font-size="494px"
                   font-weight="400"
                   id="tspan6328"
                   style="font-weight:400;font-size:494px;font-family:FreeSans, sans-serif"><tspan
                     class="TextPosition"
                     x="26552"
                     y="46464"
                     id="tspan6330"><tspan
                       id="tspan6332"
                       style="fill:#000000;stroke:none">南华早报一篇关于访问两位巴哈伊教友</tspan></tspan><tspan
                     class="TextPosition"
                     x="26552"
                     y="47006"
                     id="tspan6334"><tspan
                       id="tspan6336"
                       style="fill:#000000;stroke:none">的报导提到：「巴哈伊启示是这个年代</tspan></tspan><tspan
                     class="TextPosition"
                     x="29185"
                     y="47548"
                     id="tspan6338"><tspan
                       id="tspan6340"
                       style="fill:#000000;stroke:none">的灵魂……」。</tspan></tspan></tspan></text>
</g></g><g
             class="com.sun.star.drawing.CustomShape"
             id="g6342"><g
               id="id11"><rect
                 class="BoundingBox"
                 x="25803"
                 y="48446"
                 width="9920"
                 height="2161"
                 id="rect6345"
                 style="fill:none;stroke:none" /><path
                 d="m 26667,48447 c -432,0 -863,431 -863,863 l 0,431 c 0,432 431,864 863,864 l 8190,0 c 431,0 863,-432 863,-864 l 0,-431 c 0,-432 -432,-863 -863,-863 l -8190,0 z m -863,0 0,0 z m 9917,2158 0,0 z"
                 id="path6347"
                 inkscape:connector-curvature="0"
                 style="fill:#d1d6e8;stroke:none" /><path
                 d="m 26667,48447 c -432,0 -863,431 -863,863 l 0,431 c 0,432 431,864 863,864 l 8190,0 c 431,0 863,-432 863,-864 l 0,-431 c 0,-432 -432,-863 -863,-863 l -8190,0 z"
                 id="path6349"
                 inkscape:connector-curvature="0"
                 style="fill:none;stroke:#3465a4" /><path
                 d="m 25804,48447 0,0 z"
                 id="path6351"
                 inkscape:connector-curvature="0"
                 style="fill:none;stroke:#3465a4" /><path
                 d="m 35721,50605 0,0 z"
                 id="path6353"
                 inkscape:connector-curvature="0"
                 style="fill:none;stroke:#3465a4" /><text
                 class="TextShape"
                 id="text6355"><tspan
                   class="TextParagraph"
                   font-size="494px"
                   font-weight="400"
                   id="tspan6357"
                   style="font-weight:400;font-size:494px;font-family:FreeSans, sans-serif"><tspan
                     class="TextPosition"
                     x="26552"
                     y="49429"
                     id="tspan6359"><tspan
                       id="tspan6361"
                       style="fill:#000000;stroke:none">一位巴哈伊教友在香港大学讲授「世界</tspan></tspan><tspan
                     class="TextPosition"
                     x="26552"
                     y="49971"
                     id="tspan6363"><tspan
                       id="tspan6365"
                       style="fill:#000000;stroke:none">和平与学生如何帮助带来世界和平」。</tspan></tspan></tspan></text>
</g></g><g
             class="com.sun.star.drawing.CustomShape"
             id="g6367"><g
               id="id12"><rect
                 class="BoundingBox"
                 x="25803"
                 y="51322"
                 width="9920"
                 height="2159"
                 id="rect6370"
                 style="fill:none;stroke:none" /><path
                 d="m 26667,51323 c -432,0 -863,431 -863,863 l 0,429 c 0,432 431,864 863,864 l 8190,0 c 432,0 864,-432 864,-864 l 0,-429 c 0,-432 -432,-863 -864,-863 l -8190,0 z m -863,0 0,0 z m 9917,2156 0,0 z"
                 id="path6372"
                 inkscape:connector-curvature="0"
                 style="fill:#d1d6e8;stroke:none" /><path
                 d="m 26667,51323 c -432,0 -863,431 -863,863 l 0,429 c 0,432 431,864 863,864 l 8190,0 c 432,0 864,-432 864,-864 l 0,-429 c 0,-432 -432,-863 -864,-863 l -8190,0 z"
                 id="path6374"
                 inkscape:connector-curvature="0"
                 style="fill:none;stroke:#3465a4" /><path
                 d="m 25804,51323 0,0 z"
                 id="path6376"
                 inkscape:connector-curvature="0"
                 style="fill:none;stroke:#3465a4" /><path
                 d="m 35721,53479 0,0 z"
                 id="path6378"
                 inkscape:connector-curvature="0"
                 style="fill:none;stroke:#3465a4" /><text
                 class="TextShape"
                 id="text6380"><tspan
                   class="TextParagraph"
                   font-size="635px"
                   font-weight="400"
                   id="tspan6382"
                   style="font-weight:400;font-size:635px;font-family:FreeSans, sans-serif"><tspan
                     class="TextPosition"
                     x="27905"
                     y="52623"
                     id="tspan6384"><tspan
                       id="tspan6386"
                       style="fill:#000000;stroke:none">首个地方分会成立。</tspan></tspan></tspan></text>
</g></g><g
             class="com.sun.star.drawing.CustomShape"
             id="g6388"><g
               id="id13"><rect
                 class="BoundingBox"
                 x="25750"
                 y="54198"
                 width="9919"
                 height="2160"
                 id="rect6391"
                 style="fill:none;stroke:none" /><path
                 d="m 26614,54199 c -432,0 -863,431 -863,863 l 0,430 c 0,432 431,864 863,864 l 8189,0 c 432,0 864,-432 864,-864 l 0,-430 c 0,-432 -432,-863 -864,-863 l -8189,0 z m -863,0 0,0 z m 9916,2157 0,0 z"
                 id="path6393"
                 inkscape:connector-curvature="0"
                 style="fill:#d1d6e8;stroke:none" /><path
                 d="m 26614,54199 c -432,0 -863,431 -863,863 l 0,430 c 0,432 431,864 863,864 l 8189,0 c 432,0 864,-432 864,-864 l 0,-430 c 0,-432 -432,-863 -864,-863 l -8189,0 z"
                 id="path6395"
                 inkscape:connector-curvature="0"
                 style="fill:none;stroke:#3465a4" /><path
                 d="m 25751,54199 0,0 z"
                 id="path6397"
                 inkscape:connector-curvature="0"
                 style="fill:none;stroke:#3465a4" /><path
                 d="m 35667,56356 0,0 z"
                 id="path6399"
                 inkscape:connector-curvature="0"
                 style="fill:none;stroke:#3465a4" /><text
                 class="TextShape"
                 id="text6401"><tspan
                   class="TextParagraph"
                   font-size="494px"
                   font-weight="400"
                   id="tspan6403"
                   style="font-weight:400;font-size:494px;font-family:FreeSans, sans-serif"><tspan
                     class="TextPosition"
                     x="26499"
                     y="55180"
                     id="tspan6405"><tspan
                       id="tspan6407"
                       style="fill:#000000;stroke:none">「香港巴哈伊总会」于政府注册登记为</tspan></tspan><tspan
                     class="TextPosition"
                     x="29966"
                     y="55722"
                     id="tspan6409"><tspan
                       id="tspan6411"
                       style="fill:#000000;stroke:none">社团。</tspan></tspan></tspan></text>
</g></g><g
             class="com.sun.star.drawing.CustomShape"
             id="g6413"><g
               id="id14"><rect
                 class="BoundingBox"
                 x="25750"
                 y="56891"
                 width="9919"
                 height="2161"
                 id="rect6416"
                 style="fill:none;stroke:none" /><path
                 d="m 26614,56892 c -432,0 -863,431 -863,863 l 0,431 c 0,432 431,864 863,864 l 8189,0 c 432,0 864,-432 864,-864 l 0,-431 c 0,-432 -432,-863 -864,-863 l -8189,0 z m -863,0 0,0 z m 9916,2158 0,0 z"
                 id="path6418"
                 inkscape:connector-curvature="0"
                 style="fill:#d1d6e8;stroke:none" /><path
                 d="m 26614,56892 c -432,0 -863,431 -863,863 l 0,431 c 0,432 431,864 863,864 l 8189,0 c 432,0 864,-432 864,-864 l 0,-431 c 0,-432 -432,-863 -864,-863 l -8189,0 z"
                 id="path6420"
                 inkscape:connector-curvature="0"
                 style="fill:none;stroke:#3465a4" /><path
                 d="m 25751,56892 0,0 z"
                 id="path6422"
                 inkscape:connector-curvature="0"
                 style="fill:none;stroke:#3465a4" /><path
                 d="m 35667,59050 0,0 z"
                 id="path6424"
                 inkscape:connector-curvature="0"
                 style="fill:none;stroke:#3465a4" /><text
                 class="TextShape"
                 id="text6426"><tspan
                   class="TextParagraph"
                   font-size="494px"
                   font-weight="400"
                   id="tspan6428"
                   style="font-weight:400;font-size:494px;font-family:FreeSans, sans-serif"><tspan
                     class="TextPosition"
                     x="26746"
                     y="57603"
                     id="tspan6430"><tspan
                       id="tspan6432"
                       style="fill:#000000;stroke:none">购入一个位于尖沙咀的物业，用作为</tspan></tspan><tspan
                     class="TextPosition"
                     x="26499"
                     y="58145"
                     id="tspan6434"><tspan
                       id="tspan6436"
                       style="fill:#000000;stroke:none">「巴哈伊中心」，总会秘书处亦坐落于</tspan></tspan><tspan
                     class="TextPosition"
                     x="30213"
                     y="58687"
                     id="tspan6438"><tspan
                       id="tspan6440"
                       style="fill:#000000;stroke:none">此。</tspan></tspan></tspan></text>
</g></g></g></g></g></g></svg>