<?xml version="1.0" encoding="UTF-8" standalone="no"?>
<svg
   xmlns:dc="http://purl.org/dc/elements/1.1/"
   xmlns:cc="http://creativecommons.org/ns#"
   xmlns:rdf="http://www.w3.org/1999/02/22-rdf-syntax-ns#"
   xmlns:svg="http://www.w3.org/2000/svg"
   xmlns="http://www.w3.org/2000/svg"
   xmlns:sodipodi="http://sodipodi.sourceforge.net/DTD/sodipodi-0.dtd"
   xmlns:inkscape="http://www.inkscape.org/namespaces/inkscape"
   version="1.2"
   width="112.88892mm"
   height="131.32195mm"
   viewBox="22096 24223 11288.891 13132.194"
   preserveAspectRatio="xMidYMid"
   xml:space="preserve"
   id="svg7183"
   inkscape:version="0.91 r13725"
   sodipodi:docname="hongKongTimeline-zh-hk.svg"
   style="fill-rule:evenodd;stroke-width:28.22200012;stroke-linejoin:round"><metadata
     id="metadata7732"><rdf:RDF><cc:Work
         rdf:about=""><dc:format>image/svg+xml</dc:format><dc:type
           rdf:resource="http://purl.org/dc/dcmitype/StillImage" /><dc:title></dc:title></cc:Work></rdf:RDF></metadata><sodipodi:namedview
     pagecolor="#ffffff"
     bordercolor="#666666"
     borderopacity="1"
     objecttolerance="10"
     gridtolerance="10"
     guidetolerance="10"
     inkscape:pageopacity="0"
     inkscape:pageshadow="2"
     inkscape:window-width="1855"
     inkscape:window-height="1056"
     id="namedview7730"
     showgrid="false"
     fit-margin-top="0"
     fit-margin-left="0"
     fit-margin-right="0"
     fit-margin-bottom="0"
     inkscape:zoom="1.621622"
     inkscape:cx="200.00005"
     inkscape:cy="232.657"
     inkscape:window-x="65"
     inkscape:window-y="24"
     inkscape:window-maximized="1"
     inkscape:current-layer="svg7183" /><defs
     class="ClipPathGroup"
     id="defs7185"><clipPath
       id="presentation_clip_path"
       clipPathUnits="userSpaceOnUse"><rect
         x="22096"
         y="24223"
         width="13749"
         height="15994"
         id="rect7188" /></clipPath></defs><defs
     id="defs7190" /><defs
     id="defs7389" /><defs
     class="TextShapeIndex"
     id="defs7412" /><defs
     class="EmbeddedBulletChars"
     id="defs7416" /><defs
     class="TextEmbeddedBitmaps"
     id="defs7445" /><g
     class="SlideGroup"
     id="g7447"
     transform="matrix(0.82107014,0,0,0.82107014,3953.6333,4334.218)"><g
       id="g7449"><g
         id="id1"
         class="Slide"
         clip-path="url(#presentation_clip_path)"><g
           class="Page"
           id="g7452"><g
             class="com.sun.star.drawing.CustomShape"
             id="g7454"><g
               id="id3"><rect
                 class="BoundingBox"
                 x="22179"
                 y="24252"
                 width="2911"
                 height="2131"
                 id="rect7457"
                 style="fill:none;stroke:none" /><path
                 d="m 22534,24253 c -177,0 -354,177 -354,354 l 0,1419 c 0,177 177,355 354,355 l 2199,0 c 177,0 355,-178 355,-355 l 0,-1419 c 0,-177 -178,-354 -355,-354 l -2199,0 z m -354,0 0,0 z m 2908,2128 0,0 z"
                 id="path7459"
                 inkscape:connector-curvature="0"
                 style="fill:#f9d3b3;stroke:none" /><path
                 d="m 22534,24253 c -177,0 -354,177 -354,354 l 0,1419 c 0,177 177,355 354,355 l 2199,0 c 177,0 355,-178 355,-355 l 0,-1419 c 0,-177 -178,-354 -355,-354 l -2199,0 z"
                 id="path7461"
                 inkscape:connector-curvature="0"
                 style="fill:none;stroke:#3465a4" /><path
                 d="m 22180,24253 0,0 z"
                 id="path7463"
                 inkscape:connector-curvature="0"
                 style="fill:none;stroke:#3465a4" /><path
                 d="m 25088,26381 0,0 z"
                 id="path7465"
                 inkscape:connector-curvature="0"
                 style="fill:none;stroke:#3465a4" /><text
                 class="TextShape"
                 id="text7467"><tspan
                   class="TextParagraph"
                   font-size="988px"
                   font-weight="400"
                   id="tspan7469"
                   style="font-weight:400;font-size:988px;font-family:'Liberation Sans', sans-serif"><tspan
                     class="TextPosition"
                     x="22533"
                     y="25659"
                     id="tspan7471"><tspan
                       id="tspan7473"
                       style="fill:#000000;stroke:none">1879</tspan></tspan></tspan></text>
</g></g><g
             class="com.sun.star.drawing.CustomShape"
             id="g7475"><g
               id="id4"><rect
                 class="BoundingBox"
                 x="22137"
                 y="26918"
                 width="2911"
                 height="2130"
                 id="rect7478"
                 style="fill:none;stroke:none" /><path
                 d="m 22492,26919 c -177,0 -354,177 -354,354 l 0,1418 c 0,177 177,355 354,355 l 2199,0 c 177,0 355,-178 355,-355 l 0,-1418 c 0,-177 -178,-354 -355,-354 l -2199,0 z m -354,0 0,0 z m 2908,2127 0,0 z"
                 id="path7480"
                 inkscape:connector-curvature="0"
                 style="fill:#f9d3b3;stroke:none" /><path
                 d="m 22492,26919 c -177,0 -354,177 -354,354 l 0,1418 c 0,177 177,355 354,355 l 2199,0 c 177,0 355,-178 355,-355 l 0,-1418 c 0,-177 -178,-354 -355,-354 l -2199,0 z"
                 id="path7482"
                 inkscape:connector-curvature="0"
                 style="fill:none;stroke:#3465a4" /><path
                 d="m 22138,26919 0,0 z"
                 id="path7484"
                 inkscape:connector-curvature="0"
                 style="fill:none;stroke:#3465a4" /><path
                 d="m 25046,29046 0,0 z"
                 id="path7486"
                 inkscape:connector-curvature="0"
                 style="fill:none;stroke:#3465a4" /><text
                 class="TextShape"
                 id="text7488"><tspan
                   class="TextParagraph"
                   font-size="988px"
                   font-weight="400"
                   id="tspan7490"
                   style="font-weight:400;font-size:988px;font-family:'Liberation Sans', sans-serif"><tspan
                     class="TextPosition"
                     x="22491"
                     y="28325"
                     id="tspan7492"><tspan
                       id="tspan7494"
                       style="fill:#000000;stroke:none">1924</tspan></tspan></tspan></text>
</g></g><g
             class="com.sun.star.drawing.CustomShape"
             id="g7496"><g
               id="id5"><rect
                 class="BoundingBox"
                 x="22137"
                 y="29644"
                 width="2911"
                 height="2130"
                 id="rect7499"
                 style="fill:none;stroke:none" /><path
                 d="m 22492,29645 c -177,0 -354,177 -354,354 l 0,1418 c 0,177 177,355 354,355 l 2199,0 c 177,0 355,-178 355,-355 l 0,-1418 c 0,-177 -178,-354 -355,-354 l -2199,0 z m -354,0 0,0 z m 2908,2127 0,0 z"
                 id="path7501"
                 inkscape:connector-curvature="0"
                 style="fill:#f9d3b3;stroke:none" /><path
                 d="m 22492,29645 c -177,0 -354,177 -354,354 l 0,1418 c 0,177 177,355 354,355 l 2199,0 c 177,0 355,-178 355,-355 l 0,-1418 c 0,-177 -178,-354 -355,-354 l -2199,0 z"
                 id="path7503"
                 inkscape:connector-curvature="0"
                 style="fill:none;stroke:#3465a4" /><path
                 d="m 22138,29645 0,0 z"
                 id="path7505"
                 inkscape:connector-curvature="0"
                 style="fill:none;stroke:#3465a4" /><path
                 d="m 25046,31772 0,0 z"
                 id="path7507"
                 inkscape:connector-curvature="0"
                 style="fill:none;stroke:#3465a4" /><text
                 class="TextShape"
                 id="text7509"><tspan
                   class="TextParagraph"
                   font-size="988px"
                   font-weight="400"
                   id="tspan7511"
                   style="font-weight:400;font-size:988px;font-family:'Liberation Sans', sans-serif"><tspan
                     class="TextPosition"
                     x="22491"
                     y="31051"
                     id="tspan7513"><tspan
                       id="tspan7515"
                       style="fill:#000000;stroke:none">1924</tspan></tspan></tspan></text>
</g></g><g
             class="com.sun.star.drawing.CustomShape"
             id="g7517"><g
               id="id6"><rect
                 class="BoundingBox"
                 x="22137"
                 y="32517"
                 width="2911"
                 height="2129"
                 id="rect7520"
                 style="fill:none;stroke:none" /><path
                 d="m 22492,32518 c -177,0 -354,177 -354,354 l 0,1417 c 0,177 177,355 354,355 l 2199,0 c 177,0 355,-178 355,-355 l 0,-1417 c 0,-177 -178,-354 -355,-354 l -2199,0 z m -354,0 0,0 z m 2908,2126 0,0 z"
                 id="path7522"
                 inkscape:connector-curvature="0"
                 style="fill:#f9d3b3;stroke:none" /><path
                 d="m 22492,32518 c -177,0 -354,177 -354,354 l 0,1417 c 0,177 177,355 354,355 l 2199,0 c 177,0 355,-178 355,-355 l 0,-1417 c 0,-177 -178,-354 -355,-354 l -2199,0 z"
                 id="path7524"
                 inkscape:connector-curvature="0"
                 style="fill:none;stroke:#3465a4" /><path
                 d="m 22138,32518 0,0 z"
                 id="path7526"
                 inkscape:connector-curvature="0"
                 style="fill:none;stroke:#3465a4" /><path
                 d="m 25046,34644 0,0 z"
                 id="path7528"
                 inkscape:connector-curvature="0"
                 style="fill:none;stroke:#3465a4" /><text
                 class="TextShape"
                 id="text7530"><tspan
                   class="TextParagraph"
                   font-size="988px"
                   font-weight="400"
                   id="tspan7532"
                   style="font-weight:400;font-size:988px;font-family:'Liberation Sans', sans-serif"><tspan
                     class="TextPosition"
                     x="22491"
                     y="33923"
                     id="tspan7534"><tspan
                       id="tspan7536"
                       style="fill:#000000;stroke:none">1956</tspan></tspan></tspan></text>
</g></g><g
             class="com.sun.star.drawing.CustomShape"
             id="g7538"><g
               id="id7"><rect
                 class="BoundingBox"
                 x="22095"
                 y="35393"
                 width="2911"
                 height="2129"
                 id="rect7541"
                 style="fill:none;stroke:none" /><path
                 d="m 22450,35394 c -177,0 -354,177 -354,354 l 0,1417 c 0,177 177,355 354,355 l 2199,0 c 177,0 355,-178 355,-355 l 0,-1417 c 0,-177 -178,-354 -355,-354 l -2199,0 z m -354,0 0,0 z m 2908,2126 0,0 z"
                 id="path7543"
                 inkscape:connector-curvature="0"
                 style="fill:#f9d3b3;stroke:none" /><path
                 d="m 22450,35394 c -177,0 -354,177 -354,354 l 0,1417 c 0,177 177,355 354,355 l 2199,0 c 177,0 355,-178 355,-355 l 0,-1417 c 0,-177 -178,-354 -355,-354 l -2199,0 z"
                 id="path7545"
                 inkscape:connector-curvature="0"
                 style="fill:none;stroke:#3465a4" /><path
                 d="m 22096,35394 0,0 z"
                 id="path7547"
                 inkscape:connector-curvature="0"
                 style="fill:none;stroke:#3465a4" /><path
                 d="m 25004,37520 0,0 z"
                 id="path7549"
                 inkscape:connector-curvature="0"
                 style="fill:none;stroke:#3465a4" /><text
                 class="TextShape"
                 id="text7551"><tspan
                   class="TextParagraph"
                   font-size="988px"
                   font-weight="400"
                   id="tspan7553"
                   style="font-weight:400;font-size:988px;font-family:'Liberation Sans', sans-serif"><tspan
                     class="TextPosition"
                     x="22449"
                     y="36799"
                     id="tspan7555"><tspan
                       id="tspan7557"
                       style="fill:#000000;stroke:none">1958</tspan></tspan></tspan></text>
</g></g><g
             class="com.sun.star.drawing.CustomShape"
             id="g7559"><g
               id="id8"><rect
                 class="BoundingBox"
                 x="22095"
                 y="38089"
                 width="2911"
                 height="2129"
                 id="rect7562"
                 style="fill:none;stroke:none" /><path
                 d="m 22450,38090 c -177,0 -354,177 -354,354 l 0,1417 c 0,177 177,355 354,355 l 2199,0 c 177,0 355,-178 355,-355 l 0,-1417 c 0,-177 -178,-354 -355,-354 l -2199,0 z m -354,0 0,0 z m 2908,2126 0,0 z"
                 id="path7564"
                 inkscape:connector-curvature="0"
                 style="fill:#f9d3b3;stroke:none" /><path
                 d="m 22450,38090 c -177,0 -354,177 -354,354 l 0,1417 c 0,177 177,355 354,355 l 2199,0 c 177,0 355,-178 355,-355 l 0,-1417 c 0,-177 -178,-354 -355,-354 l -2199,0 z"
                 id="path7566"
                 inkscape:connector-curvature="0"
                 style="fill:none;stroke:#3465a4" /><path
                 d="m 22096,38090 0,0 z"
                 id="path7568"
                 inkscape:connector-curvature="0"
                 style="fill:none;stroke:#3465a4" /><path
                 d="m 25004,40216 0,0 z"
                 id="path7570"
                 inkscape:connector-curvature="0"
                 style="fill:none;stroke:#3465a4" /><text
                 class="TextShape"
                 id="text7572"><tspan
                   class="TextParagraph"
                   font-size="988px"
                   font-weight="400"
                   id="tspan7574"
                   style="font-weight:400;font-size:988px;font-family:'Liberation Sans', sans-serif"><tspan
                     class="TextPosition"
                     x="22449"
                     y="39495"
                     id="tspan7576"><tspan
                       id="tspan7578"
                       style="fill:#000000;stroke:none">1968</tspan></tspan></tspan></text>
</g></g><g
             class="com.sun.star.drawing.CustomShape"
             id="g7580"><g
               id="id9"><rect
                 class="BoundingBox"
                 x="25927"
                 y="24222"
                 width="9919"
                 height="2161"
                 id="rect7583"
                 style="fill:none;stroke:none" /><path
                 d="m 26791,24223 c -432,0 -863,431 -863,863 l 0,431 c 0,432 431,864 863,864 l 8189,0 c 432,0 864,-432 864,-864 l 0,-431 c 0,-432 -432,-863 -864,-863 l -8189,0 z m -863,0 0,0 z m 9916,2158 0,0 z"
                 id="path7585"
                 inkscape:connector-curvature="0"
                 style="fill:#d1d6e8;stroke:none" /><path
                 d="m 26791,24223 c -432,0 -863,431 -863,863 l 0,431 c 0,432 431,864 863,864 l 8189,0 c 432,0 864,-432 864,-864 l 0,-431 c 0,-432 -432,-863 -864,-863 l -8189,0 z"
                 id="path7587"
                 inkscape:connector-curvature="0"
                 style="fill:none;stroke:#3465a4" /><path
                 d="m 25928,24223 0,0 z"
                 id="path7589"
                 inkscape:connector-curvature="0"
                 style="fill:none;stroke:#3465a4" /><path
                 d="m 35844,26381 0,0 z"
                 id="path7591"
                 inkscape:connector-curvature="0"
                 style="fill:none;stroke:#3465a4" /><text
                 class="TextShape"
                 id="text7593"><tspan
                   class="TextParagraph"
                   font-size="494px"
                   font-weight="400"
                   id="tspan7595"
                   style="font-weight:400;font-size:494px;font-family:FreeSans, sans-serif"><tspan
                     class="TextPosition"
                     x="26923"
                     y="25476"
                     id="tspan7597"><tspan
                       id="tspan7599"
                       style="fill:#000000;stroke:none">巴孛的一位表親在香港生活和經商。</tspan></tspan></tspan></text>
</g></g><g
             class="com.sun.star.drawing.CustomShape"
             id="g7601"><g
               id="id10"><rect
                 class="BoundingBox"
                 x="25927"
                 y="26918"
                 width="9919"
                 height="2160"
                 id="rect7604"
                 style="fill:none;stroke:none" /><path
                 d="m 26791,26919 c -432,0 -863,431 -863,863 l 0,430 c 0,432 431,864 863,864 l 8189,0 c 432,0 864,-432 864,-864 l 0,-430 c 0,-432 -432,-863 -864,-863 l -8189,0 z m -863,0 0,0 z m 9916,2157 0,0 z"
                 id="path7606"
                 inkscape:connector-curvature="0"
                 style="fill:#d1d6e8;stroke:none" /><path
                 d="m 26791,26919 c -432,0 -863,431 -863,863 l 0,430 c 0,432 431,864 863,864 l 8189,0 c 432,0 864,-432 864,-864 l 0,-430 c 0,-432 -432,-863 -864,-863 l -8189,0 z"
                 id="path7608"
                 inkscape:connector-curvature="0"
                 style="fill:none;stroke:#3465a4" /><path
                 d="m 25928,26919 0,0 z"
                 id="path7610"
                 inkscape:connector-curvature="0"
                 style="fill:none;stroke:#3465a4" /><path
                 d="m 35844,29076 0,0 z"
                 id="path7612"
                 inkscape:connector-curvature="0"
                 style="fill:none;stroke:#3465a4" /><text
                 class="TextShape"
                 id="text7614"><tspan
                   class="TextParagraph"
                   font-size="494px"
                   font-weight="400"
                   id="tspan7616"
                   style="font-weight:400;font-size:494px;font-family:FreeSans, sans-serif"><tspan
                     class="TextPosition"
                     x="26676"
                     y="27629"
                     id="tspan7618"><tspan
                       id="tspan7620"
                       style="fill:#000000;stroke:none">南華早報一篇關於訪問兩位巴哈伊教友</tspan></tspan><tspan
                     class="TextPosition"
                     x="26676"
                     y="28171"
                     id="tspan7622"><tspan
                       id="tspan7624"
                       style="fill:#000000;stroke:none">的報導提到：「巴哈伊啟示是這個年代</tspan></tspan><tspan
                     class="TextPosition"
                     x="29309"
                     y="28713"
                     id="tspan7626"><tspan
                       id="tspan7628"
                       style="fill:#000000;stroke:none">的靈魂……」。</tspan></tspan></tspan></text>
</g></g><g
             class="com.sun.star.drawing.CustomShape"
             id="g7630"><g
               id="id11"><rect
                 class="BoundingBox"
                 x="25927"
                 y="29612"
                 width="9919"
                 height="2161"
                 id="rect7633"
                 style="fill:none;stroke:none" /><path
                 d="m 26791,29613 c -432,0 -863,431 -863,863 l 0,431 c 0,432 431,864 863,864 l 8189,0 c 432,0 864,-432 864,-864 l 0,-431 c 0,-432 -432,-863 -864,-863 l -8189,0 z m -863,0 0,0 z m 9916,2158 0,0 z"
                 id="path7635"
                 inkscape:connector-curvature="0"
                 style="fill:#d1d6e8;stroke:none" /><path
                 d="m 26791,29613 c -432,0 -863,431 -863,863 l 0,431 c 0,432 431,864 863,864 l 8189,0 c 432,0 864,-432 864,-864 l 0,-431 c 0,-432 -432,-863 -864,-863 l -8189,0 z"
                 id="path7637"
                 inkscape:connector-curvature="0"
                 style="fill:none;stroke:#3465a4" /><path
                 d="m 25928,29613 0,0 z"
                 id="path7639"
                 inkscape:connector-curvature="0"
                 style="fill:none;stroke:#3465a4" /><path
                 d="m 35844,31771 0,0 z"
                 id="path7641"
                 inkscape:connector-curvature="0"
                 style="fill:none;stroke:#3465a4" /><text
                 class="TextShape"
                 id="text7643"><tspan
                   class="TextParagraph"
                   font-size="494px"
                   font-weight="400"
                   id="tspan7645"
                   style="font-weight:400;font-size:494px;font-family:FreeSans, sans-serif"><tspan
                     class="TextPosition"
                     x="26431"
                     y="30595"
                     id="tspan7647"><tspan
                       id="tspan7649"
                       style="fill:#000000;stroke:none">一位巴哈伊教友在香港大學講授「世界</tspan></tspan><tspan
                     class="TextPosition"
                     x="26431"
                     y="31137"
                     id="tspan7651"><tspan
                       id="tspan7653"
                       style="fill:#000000;stroke:none">和平與學生如何幫助帶來世界和平」。</tspan></tspan></tspan></text>
</g></g><g
             class="com.sun.star.drawing.CustomShape"
             id="g7655"><g
               id="id12"><rect
                 class="BoundingBox"
                 x="25927"
                 y="32489"
                 width="9919"
                 height="2158"
                 id="rect7658"
                 style="fill:none;stroke:none" /><path
                 d="m 26790,32490 c -431,0 -862,431 -862,862 l 0,430 c 0,431 431,863 862,863 l 8191,0 c 431,0 863,-432 863,-863 l 0,-430 c 0,-431 -432,-862 -863,-862 l -8191,0 z m -862,0 0,0 z m 9916,2155 0,0 z"
                 id="path7660"
                 inkscape:connector-curvature="0"
                 style="fill:#d1d6e8;stroke:none" /><path
                 d="m 26790,32490 c -431,0 -862,431 -862,862 l 0,430 c 0,431 431,863 862,863 l 8191,0 c 431,0 863,-432 863,-863 l 0,-430 c 0,-431 -432,-862 -863,-862 l -8191,0 z"
                 id="path7662"
                 inkscape:connector-curvature="0"
                 style="fill:none;stroke:#3465a4" /><path
                 d="m 25928,32490 0,0 z"
                 id="path7664"
                 inkscape:connector-curvature="0"
                 style="fill:none;stroke:#3465a4" /><path
                 d="m 35844,34645 0,0 z"
                 id="path7666"
                 inkscape:connector-curvature="0"
                 style="fill:none;stroke:#3465a4" /><text
                 class="TextShape"
                 id="text7668"><tspan
                   class="TextParagraph"
                   font-size="494px"
                   font-weight="400"
                   id="tspan7670"
                   style="font-weight:400;font-size:494px;font-family:FreeSans, sans-serif"><tspan
                     class="TextPosition"
                     x="28657"
                     y="33741"
                     id="tspan7672"><tspan
                       id="tspan7674"
                       style="fill:#000000;stroke:none">首個地方分會成立。</tspan></tspan></tspan></text>
</g></g><g
             class="com.sun.star.drawing.CustomShape"
             id="g7676"><g
               id="id13"><rect
                 class="BoundingBox"
                 x="25875"
                 y="35363"
                 width="9919"
                 height="2159"
                 id="rect7679"
                 style="fill:none;stroke:none" /><path
                 d="m 26739,35364 c -432,0 -863,431 -863,863 l 0,429 c 0,432 431,864 863,864 l 8189,0 c 432,0 864,-432 864,-864 l 0,-429 c 0,-432 -432,-863 -864,-863 l -8189,0 z m -863,0 0,0 z m 9916,2156 0,0 z"
                 id="path7681"
                 inkscape:connector-curvature="0"
                 style="fill:#d1d6e8;stroke:none" /><path
                 d="m 26739,35364 c -432,0 -863,431 -863,863 l 0,429 c 0,432 431,864 863,864 l 8189,0 c 432,0 864,-432 864,-864 l 0,-429 c 0,-432 -432,-863 -864,-863 l -8189,0 z"
                 id="path7683"
                 inkscape:connector-curvature="0"
                 style="fill:none;stroke:#3465a4" /><path
                 d="m 25876,35364 0,0 z"
                 id="path7685"
                 inkscape:connector-curvature="0"
                 style="fill:none;stroke:#3465a4" /><path
                 d="m 35792,37520 0,0 z"
                 id="path7687"
                 inkscape:connector-curvature="0"
                 style="fill:none;stroke:#3465a4" /><text
                 class="TextShape"
                 id="text7689"><tspan
                   class="TextParagraph"
                   font-size="494px"
                   font-weight="400"
                   id="tspan7691"
                   style="font-weight:400;font-size:494px;font-family:FreeSans, sans-serif"><tspan
                     class="TextPosition"
                     x="26624"
                     y="36345"
                     id="tspan7693"><tspan
                       id="tspan7695"
                       style="fill:#000000;stroke:none">「香港巴哈伊總會」於政府註冊登記為</tspan></tspan><tspan
                     class="TextPosition"
                     x="30091"
                     y="36887"
                     id="tspan7697"><tspan
                       id="tspan7699"
                       style="fill:#000000;stroke:none">社團。</tspan></tspan></tspan></text>
</g></g><g
             class="com.sun.star.drawing.CustomShape"
             id="g7701"><g
               id="id14"><rect
                 class="BoundingBox"
                 x="25875"
                 y="38057"
                 width="9919"
                 height="2161"
                 id="rect7704"
                 style="fill:none;stroke:none" /><path
                 d="m 26739,38058 c -432,0 -863,431 -863,863 l 0,431 c 0,432 431,864 863,864 l 8189,0 c 432,0 864,-432 864,-864 l 0,-431 c 0,-432 -432,-863 -864,-863 l -8189,0 z m -863,0 0,0 z m 9916,2158 0,0 z"
                 id="path7706"
                 inkscape:connector-curvature="0"
                 style="fill:#d1d6e8;stroke:none" /><path
                 d="m 26739,38058 c -432,0 -863,431 -863,863 l 0,431 c 0,432 431,864 863,864 l 8189,0 c 432,0 864,-432 864,-864 l 0,-431 c 0,-432 -432,-863 -864,-863 l -8189,0 z"
                 id="path7708"
                 inkscape:connector-curvature="0"
                 style="fill:none;stroke:#3465a4" /><path
                 d="m 25876,38058 0,0 z"
                 id="path7710"
                 inkscape:connector-curvature="0"
                 style="fill:none;stroke:#3465a4" /><path
                 d="m 35792,40216 0,0 z"
                 id="path7712"
                 inkscape:connector-curvature="0"
                 style="fill:none;stroke:#3465a4" /><text
                 class="TextShape"
                 id="text7714"><tspan
                   class="TextParagraph"
                   font-size="494px"
                   font-weight="400"
                   id="tspan7716"
                   style="font-weight:400;font-size:494px;font-family:FreeSans, sans-serif"><tspan
                     class="TextPosition"
                     x="26871"
                     y="38769"
                     id="tspan7718"><tspan
                       id="tspan7720"
                       style="fill:#000000;stroke:none">購入一個位於尖沙咀的物業，用作為</tspan></tspan><tspan
                     class="TextPosition"
                     x="26624"
                     y="39311"
                     id="tspan7722"><tspan
                       id="tspan7724"
                       style="fill:#000000;stroke:none">「巴哈伊中心」，總會秘書處亦坐落於</tspan></tspan><tspan
                     class="TextPosition"
                     x="30338"
                     y="39853"
                     id="tspan7726"><tspan
                       id="tspan7728"
                       style="fill:#000000;stroke:none">此。</tspan></tspan></tspan></text>
</g></g></g></g></g></g></svg>